<?xml version="1.0" encoding="UTF-8"?>
<svg xmlns="http://www.w3.org/2000/svg" xmlns:xlink="http://www.w3.org/1999/xlink" width="300pt" height="120pt" viewBox="0 0 300 120" version="1.1">
<g id="surface1">
<path style=" stroke:none;fill-rule:nonzero;fill:rgb(100%,100%,100%);fill-opacity:1;" d="M 292.578125 103.480469 L 266.980469 103.480469 L 267.800781 103.28125 C 267.839844 103.28125 267.878906 103.261719 267.898438 103.261719 C 268 103.238281 268.078125 103.199219 268.179688 103.199219 C 269.320312 103.101562 270.519531 102.878906 271.738281 102.519531 C 273.019531 102.140625 274.28125 101.558594 275.558594 100.78125 C 275.578125 100.761719 275.601562 100.761719 275.621094 100.738281 C 275.71875 100.660156 275.859375 100.558594 276.078125 100.640625 L 276.140625 100.660156 L 276.140625 102.441406 L 292.28125 102.441406 C 292.28125 102.421875 292.300781 102.398438 292.300781 102.398438 C 292.300781 82.261719 292.300781 62.121094 292.300781 41.980469 C 292.300781 41.921875 292.300781 41.839844 292.28125 41.761719 L 292.28125 41.699219 L 276.140625 41.699219 L 276.121094 41.738281 C 276.121094 41.738281 276.121094 41.738281 276.121094 41.761719 C 276.121094 41.78125 276.121094 41.800781 276.121094 41.800781 L 276.121094 61.859375 C 276.121094 61.898438 276.121094 61.921875 276.121094 61.960938 C 276.121094 61.980469 276.121094 62 276.121094 62.019531 C 276.121094 62.039062 276.121094 62.078125 276.101562 62.101562 L 276.101562 62.121094 C 276.101562 62.140625 276.078125 62.179688 276.039062 62.199219 C 276.019531 62.21875 276 62.21875 275.980469 62.238281 L 275.898438 62.261719 L 275.859375 62.238281 C 275.820312 62.21875 275.78125 62.199219 275.738281 62.179688 C 275.660156 62.140625 275.578125 62.078125 275.5 62.039062 C 275.238281 61.921875 275 61.78125 274.738281 61.640625 C 274.179688 61.339844 273.601562 61.039062 273 60.800781 C 270.339844 59.71875 267.539062 59.359375 264.398438 59.699219 C 261.5 60.019531 258.800781 61.058594 256.359375 62.800781 C 254.601562 64.058594 253.039062 65.660156 251.578125 67.738281 C 250.058594 69.878906 248.980469 72.378906 248.339844 75.160156 C 247.558594 78.578125 247.441406 82.160156 247.960938 85.761719 C 248.601562 90.078125 250.261719 93.839844 252.878906 96.898438 C 254.179688 98.398438 255.539062 99.601562 257.039062 100.578125 C 259.21875 101.980469 261.621094 102.839844 264.160156 103.160156 C 264.441406 103.199219 264.71875 103.238281 264.980469 103.28125 L 265.28125 103.320312 L 265.261719 103.519531 L 180.101562 103.519531 L 180.941406 103.320312 C 180.980469 103.320312 181.019531 103.300781 181.058594 103.300781 C 181.160156 103.28125 181.238281 103.261719 181.339844 103.238281 C 182.421875 103.140625 183.5 102.921875 184.578125 102.558594 C 186.058594 102.058594 187.441406 101.261719 188.71875 100.179688 C 188.738281 100.160156 188.761719 100.140625 188.78125 100.121094 C 188.898438 100.019531 189.058594 99.878906 189.300781 99.878906 L 189.398438 99.878906 L 189.398438 102.398438 C 190.679688 102.480469 204.378906 102.460938 205.539062 102.378906 C 205.621094 100.359375 205.578125 62.199219 205.5 60.359375 C 205.480469 60.359375 205.441406 60.339844 205.421875 60.339844 C 200.121094 60.339844 194.839844 60.339844 189.539062 60.339844 C 189.5 60.339844 189.460938 60.339844 189.421875 60.359375 L 189.398438 60.378906 L 189.378906 60.398438 L 189.378906 74.738281 C 189.378906 75.578125 189.378906 76.421875 189.378906 77.261719 C 189.378906 79.300781 189.378906 81.421875 189.378906 83.5 C 189.378906 84.621094 189.160156 85.578125 188.699219 86.421875 C 188.460938 86.859375 188.199219 87.21875 187.921875 87.519531 C 186.699219 88.800781 184.738281 89.121094 183.21875 88.261719 C 182.480469 87.839844 181.898438 87.21875 181.480469 86.398438 C 181.058594 85.578125 180.839844 84.660156 180.839844 83.601562 C 180.839844 77.921875 180.839844 72.238281 180.839844 66.558594 L 180.839844 60.421875 C 179.601562 60.339844 165.820312 60.339844 164.601562 60.441406 L 164.601562 67.621094 C 164.601562 74.339844 164.601562 81.058594 164.601562 87.761719 C 164.601562 89.738281 164.980469 91.699219 165.699219 93.578125 C 166.660156 96.039062 168.199219 98.121094 170.460938 99.941406 C 172.660156 101.699219 175 102.738281 177.640625 103.101562 C 177.859375 103.140625 178.078125 103.160156 178.320312 103.199219 C 178.421875 103.21875 178.539062 103.238281 178.640625 103.261719 L 178.621094 103.460938 L 144.21875 103.460938 L 144.199219 103.261719 C 144.238281 103.261719 144.300781 103.238281 144.339844 103.238281 C 144.460938 103.21875 144.558594 103.199219 144.679688 103.179688 C 146.960938 103.019531 149.160156 102.378906 151.261719 101.28125 C 152.621094 100.558594 153.941406 99.601562 155.300781 98.300781 C 157.300781 96.378906 158.878906 94.058594 160.140625 91.21875 C 160.460938 90.5 160.738281 89.699219 161 88.761719 C 161.921875 85.539062 162.179688 82.199219 161.839844 78.539062 C 161.539062 75.5 160.820312 72.878906 159.640625 70.519531 C 158.039062 67.378906 155.859375 64.738281 153.121094 62.699219 C 152.261719 62.058594 151.359375 61.519531 150.421875 61.101562 C 147.800781 59.921875 144.941406 59.398438 141.941406 59.578125 C 139.121094 59.738281 136.460938 60.578125 134.039062 62.039062 C 133.960938 62.078125 133.898438 62.121094 133.800781 62.179688 C 133.761719 62.199219 133.699219 62.238281 133.640625 62.261719 L 133.5 62.339844 L 133.5 45.378906 C 133.5 44.859375 133.5 44.359375 133.5 43.839844 C 133.5 43.578125 133.5 43.339844 133.5 43.078125 C 133.5 42.621094 133.5 42.140625 133.480469 41.679688 C 132.101562 41.601562 118.5 41.621094 117.320312 41.71875 C 117.261719 44.121094 117.28125 100 117.359375 102.421875 C 118.679688 102.5 132.320312 102.460938 133.519531 102.378906 L 133.519531 100.621094 L 133.601562 100.601562 C 133.621094 100.601562 133.640625 100.578125 133.660156 100.578125 C 133.699219 100.578125 133.738281 100.558594 133.78125 100.578125 C 133.859375 100.621094 133.960938 100.679688 134.058594 100.738281 C 136.179688 102.019531 138.441406 102.820312 140.800781 103.101562 C 141.058594 103.140625 141.320312 103.179688 141.578125 103.199219 L 141.941406 103.261719 L 141.921875 103.460938 L 93.398438 103.460938 L 93.378906 103.261719 C 93.441406 103.261719 93.5 103.238281 93.539062 103.21875 C 93.660156 103.199219 93.78125 103.160156 93.898438 103.160156 C 95.121094 103.121094 96.378906 102.960938 97.761719 102.679688 C 101.160156 102.019531 104.28125 100.679688 107.019531 98.71875 C 108.761719 97.480469 110.320312 95.898438 111.839844 93.859375 C 112.421875 93.078125 112.960938 92.160156 113.5 91.039062 C 113.539062 90.980469 113.558594 90.898438 113.578125 90.820312 C 112.859375 90.71875 112.160156 90.621094 111.460938 90.5 L 109.28125 90.179688 C 107.738281 89.941406 106.179688 89.71875 104.640625 89.480469 C 103.980469 89.378906 103.320312 89.28125 102.660156 89.179688 C 101.28125 88.980469 99.839844 88.761719 98.441406 88.539062 C 98.179688 88.5 98.019531 88.539062 97.839844 88.738281 C 97.238281 89.339844 96.519531 89.839844 95.660156 90.238281 C 94.300781 90.859375 92.78125 91 91.019531 90.699219 C 89.101562 90.359375 87.601562 89.300781 86.558594 87.558594 C 86.5 87.460938 86.460938 87.378906 86.421875 87.261719 C 86.398438 87.199219 86.359375 87.140625 86.339844 87.058594 L 86.28125 86.921875 L 113.859375 86.921875 C 113.878906 86.878906 113.878906 86.839844 113.898438 86.800781 C 113.921875 86.71875 113.941406 86.640625 113.960938 86.578125 C 114.28125 85.320312 114.480469 84.039062 114.539062 82.738281 C 114.621094 80.859375 114.539062 79.21875 114.300781 77.699219 C 113.820312 74.761719 112.859375 72.21875 111.398438 69.980469 C 110 67.839844 108.320312 65.980469 106.398438 64.460938 C 104.839844 63.21875 103.261719 62.238281 101.578125 61.5 C 99.160156 60.441406 96.5 59.800781 93.660156 59.601562 C 91.5 59.460938 89.398438 59.539062 87.378906 59.859375 C 83.699219 60.441406 80.359375 61.859375 77.398438 64.039062 C 75.738281 65.261719 74.238281 66.78125 72.820312 68.640625 C 71.441406 70.441406 70.421875 72.5 69.738281 74.78125 C 68.800781 77.898438 68.558594 81.199219 69.019531 84.601562 C 69.539062 88.441406 71 91.800781 73.378906 94.640625 C 74.898438 96.460938 76.441406 97.878906 78.121094 99.019531 C 79.71875 100.121094 81.28125 100.941406 82.878906 101.539062 C 85.300781 102.460938 87.921875 103 90.660156 103.140625 C 90.800781 103.160156 90.960938 103.179688 91.101562 103.199219 C 91.179688 103.21875 91.28125 103.21875 91.359375 103.238281 L 91.339844 103.441406 L 7.421875 103.441406 L 7.421875 16.519531 L 292.578125 16.519531 Z M 269.21875 103.28125 L 292.378906 103.28125 L 292.378906 102.640625 L 275.960938 102.640625 L 275.960938 100.800781 C 275.878906 100.800781 275.820312 100.839844 275.761719 100.878906 C 275.738281 100.898438 275.699219 100.921875 275.679688 100.941406 C 274.378906 101.71875 273.121094 102.300781 271.820312 102.699219 C 270.941406 102.960938 270.058594 103.140625 269.21875 103.28125 Z M 7.621094 103.28125 L 89.339844 103.28125 C 87.058594 103.058594 84.878906 102.539062 82.820312 101.761719 C 81.199219 101.140625 79.640625 100.320312 78.019531 99.21875 C 76.339844 98.078125 74.78125 96.640625 73.238281 94.800781 C 70.839844 91.941406 69.359375 88.519531 68.839844 84.660156 C 68.378906 81.238281 68.621094 77.921875 69.558594 74.761719 C 70.238281 72.480469 71.300781 70.398438 72.679688 68.558594 C 74.121094 66.679688 75.621094 65.160156 77.300781 63.921875 C 80.28125 61.699219 83.660156 60.28125 87.359375 59.699219 C 89.378906 59.378906 91.5 59.28125 93.679688 59.441406 C 96.539062 59.640625 99.21875 60.28125 101.660156 61.359375 C 103.359375 62.101562 104.941406 63.078125 106.519531 64.339844 C 108.441406 65.878906 110.140625 67.761719 111.558594 69.921875 C 113.039062 72.179688 114 74.738281 114.5 77.71875 C 114.738281 79.238281 114.820312 80.898438 114.738281 82.800781 C 114.679688 84.121094 114.480469 85.421875 114.160156 86.679688 C 114.140625 86.761719 114.121094 86.839844 114.101562 86.921875 C 114.078125 86.980469 114.058594 87.039062 114.039062 87.101562 L 114.019531 87.179688 L 86.601562 87.179688 C 86.601562 87.199219 86.621094 87.21875 86.621094 87.238281 C 86.660156 87.339844 86.699219 87.441406 86.738281 87.519531 C 87.761719 89.21875 89.199219 90.238281 91.058594 90.578125 C 92.761719 90.878906 94.238281 90.738281 95.578125 90.140625 C 96.421875 89.761719 97.140625 89.28125 97.699219 88.679688 C 97.941406 88.441406 98.160156 88.359375 98.480469 88.421875 C 99.878906 88.640625 101.320312 88.859375 102.699219 89.058594 C 103.359375 89.160156 104.019531 89.261719 104.679688 89.359375 C 106.21875 89.601562 107.78125 89.820312 109.320312 90.058594 L 111.5 90.378906 C 112.21875 90.480469 112.960938 90.601562 113.738281 90.699219 L 113.859375 90.71875 L 113.78125 90.960938 C 113.738281 91.058594 113.71875 91.140625 113.679688 91.199219 C 113.140625 92.320312 112.578125 93.261719 112 94.039062 C 110.480469 96.078125 108.898438 97.699219 107.140625 98.941406 C 104.378906 100.921875 101.238281 102.261719 97.820312 102.921875 C 97 103.078125 96.21875 103.199219 95.460938 103.28125 L 140.441406 103.28125 C 138.160156 102.960938 135.960938 102.179688 133.921875 100.941406 C 133.859375 100.898438 133.78125 100.859375 133.699219 100.820312 L 133.699219 102.558594 L 133.621094 102.578125 C 133.238281 102.679688 117.921875 102.71875 117.21875 102.621094 L 117.160156 102.621094 L 117.140625 102.558594 C 117.039062 102.179688 117 42.421875 117.101562 41.640625 L 117.101562 41.578125 L 117.160156 41.558594 C 117.480469 41.460938 132.820312 41.421875 133.558594 41.519531 L 133.640625 41.539062 L 133.640625 41.621094 C 133.660156 42.121094 133.660156 42.621094 133.660156 43.121094 C 133.660156 43.359375 133.660156 43.621094 133.660156 43.859375 C 133.660156 44.378906 133.660156 44.878906 133.660156 45.398438 L 133.660156 62.019531 C 133.660156 62.019531 133.679688 62.019531 133.679688 62.019531 C 133.78125 61.980469 133.839844 61.941406 133.921875 61.898438 C 136.359375 60.421875 139.058594 59.578125 141.898438 59.421875 C 144.941406 59.238281 147.839844 59.761719 150.480469 60.960938 C 151.421875 61.398438 152.339844 61.941406 153.199219 62.578125 C 155.960938 64.640625 158.179688 67.28125 159.78125 70.460938 C 160.980469 72.839844 161.699219 75.480469 162 78.539062 C 162.359375 82.238281 162.078125 85.601562 161.160156 88.839844 C 160.898438 89.800781 160.601562 90.601562 160.28125 91.320312 C 159.019531 94.179688 157.421875 96.519531 155.398438 98.460938 C 154.039062 99.761719 152.699219 100.761719 151.300781 101.480469 C 149.519531 102.421875 147.640625 103.019531 145.699219 103.28125 L 177.320312 103.28125 C 174.78125 102.878906 172.421875 101.820312 170.300781 100.121094 C 168.019531 98.28125 166.441406 96.179688 165.480469 93.679688 C 164.738281 91.761719 164.359375 89.78125 164.359375 87.78125 C 164.359375 81.058594 164.359375 74.339844 164.359375 67.640625 L 164.359375 60.28125 L 164.441406 60.261719 C 164.859375 60.160156 180.398438 60.140625 180.921875 60.238281 L 181 60.261719 L 181 66.578125 C 181 72.261719 181 77.941406 181 83.621094 C 181 84.640625 181.199219 85.519531 181.621094 86.320312 C 182.039062 87.121094 182.578125 87.699219 183.28125 88.101562 C 184.699219 88.898438 186.578125 88.621094 187.71875 87.398438 C 188 87.121094 188.238281 86.761719 188.480469 86.339844 C 188.921875 85.539062 189.140625 84.621094 189.121094 83.519531 C 189.101562 81.441406 189.101562 79.320312 189.121094 77.28125 C 189.121094 76.441406 189.121094 75.601562 189.121094 74.761719 L 189.121094 60.339844 L 189.199219 60.238281 C 189.21875 60.21875 189.238281 60.199219 189.28125 60.179688 L 189.300781 60.179688 C 189.359375 60.160156 189.398438 60.160156 189.460938 60.160156 C 194.761719 60.160156 200.039062 60.160156 205.339844 60.160156 C 205.378906 60.160156 205.441406 60.179688 205.480469 60.179688 C 205.5 60.179688 205.519531 60.179688 205.519531 60.199219 L 205.578125 60.199219 L 205.601562 60.261719 C 205.679688 60.5 205.699219 79.140625 205.699219 81.261719 C 205.699219 91.238281 205.699219 102.160156 205.640625 102.5 L 205.640625 102.558594 L 205.578125 102.578125 C 205.21875 102.679688 189.761719 102.699219 189.199219 102.601562 L 189.121094 102.578125 L 189.121094 100.019531 C 189 100.039062 188.921875 100.121094 188.820312 100.199219 C 188.800781 100.21875 188.78125 100.238281 188.761719 100.261719 C 187.460938 101.359375 186.058594 102.179688 184.558594 102.679688 C 183.78125 102.941406 183 103.140625 182.21875 103.261719 L 263.839844 103.261719 C 261.378906 102.921875 259.039062 102.058594 256.898438 100.699219 C 255.378906 99.71875 254 98.5 252.699219 96.980469 C 250.039062 93.878906 248.359375 90.101562 247.71875 85.738281 C 247.179688 82.101562 247.300781 78.5 248.101562 75.058594 C 248.738281 72.261719 249.839844 69.738281 251.378906 67.578125 C 252.859375 65.5 254.441406 63.859375 256.21875 62.601562 C 258.679688 60.839844 261.398438 59.800781 264.339844 59.480469 C 267.460938 59.140625 270.378906 59.519531 273.019531 60.578125 C 273.621094 60.820312 274.199219 61.140625 274.78125 61.441406 C 275.039062 61.578125 275.28125 61.699219 275.539062 61.839844 C 275.621094 61.878906 275.71875 61.941406 275.800781 61.980469 C 275.820312 62 275.839844 62 275.859375 62.019531 C 275.859375 62 275.859375 62 275.859375 61.980469 C 275.859375 61.980469 275.859375 61.960938 275.859375 61.941406 C 275.859375 61.898438 275.859375 61.878906 275.859375 61.859375 L 275.859375 41.800781 C 275.859375 41.78125 275.859375 41.761719 275.859375 41.738281 C 275.859375 41.738281 275.859375 41.71875 275.859375 41.699219 L 275.859375 41.679688 C 275.859375 41.660156 275.859375 41.660156 275.878906 41.640625 C 275.878906 41.640625 275.878906 41.621094 275.898438 41.601562 L 275.941406 41.5 L 292.28125 41.5 L 292.300781 41.519531 L 292.300781 16.71875 L 218.378906 16.71875 C 219.28125 16.859375 220.160156 17.160156 221 17.621094 C 222.78125 18.601562 224.839844 19.71875 226.878906 20.859375 C 228.179688 21.601562 229.558594 22.398438 231.121094 23.320312 C 233.21875 24.578125 234.480469 26.378906 234.859375 28.679688 C 235 29.539062 235.121094 30.660156 234.898438 31.761719 C 234.878906 31.859375 234.878906 31.960938 234.878906 32.058594 L 234.878906 32.078125 C 234.878906 32.679688 234.898438 33.28125 234.898438 33.859375 C 234.921875 35.28125 234.921875 36.761719 235 38.199219 C 235.039062 38.78125 235.019531 39.359375 235.019531 39.921875 C 235.019531 40.441406 235.019531 41 235.039062 41.519531 C 235.101562 42.820312 234.78125 44.058594 234.039062 45.441406 C 233.480469 46.480469 232.601562 47.339844 231.378906 48.078125 C 229.480469 49.21875 227.738281 50.261719 226.101562 51.199219 C 224.238281 52.28125 222.679688 53.179688 221.078125 54.058594 C 220.199219 54.539062 219.21875 54.839844 218.078125 54.960938 C 216.460938 55.140625 214.878906 54.820312 213.398438 54 C 212.820312 53.679688 212.261719 53.378906 211.679688 53.058594 C 210.761719 52.558594 209.800781 52.039062 208.878906 51.519531 C 208.019531 51.039062 207.160156 50.539062 206.320312 50.039062 C 205.421875 49.519531 204.480469 48.980469 203.558594 48.441406 C 202.140625 47.640625 201.121094 46.601562 200.421875 45.261719 C 199.839844 44.140625 199.519531 42.960938 199.519531 41.761719 C 199.5 40.761719 199.5 39.738281 199.5 38.738281 C 199.5 38.179688 199.5 37.621094 199.5 37.039062 C 199.5 36.761719 199.558594 36.480469 199.679688 36.21875 L 199.621094 36.320312 L 199.539062 36.21875 C 199.519531 36.199219 199.519531 36.199219 199.519531 36.199219 C 199.5 36.179688 199.480469 36.160156 199.480469 36.101562 C 199.480469 35.601562 199.460938 35.078125 199.460938 34.578125 C 199.441406 33.320312 199.398438 32.039062 199.398438 30.761719 C 199.398438 29.878906 199.519531 28.980469 199.761719 28.019531 C 200.28125 26 201.460938 24.441406 203.261719 23.421875 C 204.019531 22.980469 204.78125 22.539062 205.519531 22.101562 C 206.21875 21.699219 206.921875 21.28125 207.640625 20.859375 L 208.480469 20.378906 C 210.078125 19.460938 211.71875 18.519531 213.359375 17.640625 C 214.238281 17.160156 215.160156 16.859375 216.101562 16.71875 L 7.621094 16.71875 L 7.621094 60.21875 L 24.179688 60.21875 L 24.199219 60.300781 C 24.21875 60.398438 24.238281 60.5 24.261719 60.578125 C 24.28125 60.699219 24.320312 60.800781 24.339844 60.921875 L 24.859375 63.179688 C 25.820312 67.339844 26.800781 71.5 27.78125 75.660156 C 27.800781 75.71875 27.820312 75.78125 27.839844 75.859375 C 27.859375 75.800781 27.878906 75.738281 27.898438 75.699219 C 28.078125 74.980469 28.238281 74.28125 28.421875 73.558594 C 28.660156 72.519531 28.921875 71.480469 29.179688 70.441406 C 29.78125 67.960938 30.378906 65.480469 31 63 L 31.578125 60.601562 C 31.601562 60.539062 31.621094 60.480469 31.640625 60.398438 L 31.699219 60.238281 L 31.78125 60.238281 C 36.878906 60.238281 41.941406 60.238281 47.039062 60.238281 L 47.121094 60.238281 L 47.140625 60.320312 C 48.359375 65.300781 49.578125 70.261719 50.800781 75.21875 L 50.941406 75.800781 C 51.199219 74.738281 51.460938 73.679688 51.679688 72.640625 C 51.820312 72.019531 51.960938 71.398438 52.101562 70.78125 C 52.300781 69.941406 52.5 69.101562 52.679688 68.238281 C 52.878906 67.359375 53.078125 66.460938 53.300781 65.578125 C 53.601562 64.359375 53.898438 63.101562 54.199219 61.898438 C 54.320312 61.378906 54.460938 60.878906 54.578125 60.359375 L 54.601562 60.300781 L 54.660156 60.28125 C 55 60.199219 70.480469 60.179688 71.078125 60.261719 L 71.199219 60.28125 L 71.179688 60.378906 C 71.160156 60.441406 71.160156 60.5 71.140625 60.539062 C 71.121094 60.640625 71.101562 60.71875 71.058594 60.820312 L 70.480469 62.800781 C 69.78125 65.179688 69.078125 67.558594 68.359375 69.941406 C 66.761719 75.339844 65.140625 80.71875 63.539062 86.121094 L 61.519531 92.859375 C 60.601562 95.921875 59.699219 98.980469 58.78125 102.039062 L 58.761719 102.121094 C 58.621094 102.601562 58.578125 102.640625 58.140625 102.640625 L 43.898438 102.640625 C 43.320312 102.640625 43.28125 102.601562 43.121094 102.039062 C 42.558594 99.878906 42.019531 97.71875 41.460938 95.578125 C 40.839844 93.179688 40.238281 90.761719 39.621094 88.359375 C 39.578125 88.238281 39.539062 88.101562 39.480469 87.960938 C 39.460938 88 39.441406 88.039062 39.441406 88.078125 L 39.019531 89.660156 C 38.640625 91.058594 38.28125 92.441406 37.898438 93.839844 C 37.441406 95.578125 36.980469 97.320312 36.539062 99.078125 C 36.28125 100.078125 36.019531 101.101562 35.761719 102.101562 C 35.761719 102.140625 35.738281 102.160156 35.738281 102.199219 C 35.71875 102.261719 35.699219 102.300781 35.699219 102.359375 C 35.679688 102.5 35.578125 102.679688 35.28125 102.679688 C 35.21875 102.679688 35.140625 102.679688 35.078125 102.679688 L 20.898438 102.679688 C 20.859375 102.679688 20.820312 102.679688 20.78125 102.679688 C 20.378906 102.660156 20.339844 102.640625 20.21875 102.261719 L 19.839844 101 C 19.480469 99.820312 19.101562 98.621094 18.738281 97.421875 C 18.121094 95.339844 17.5 93.261719 16.898438 91.179688 C 16.28125 89.101562 15.679688 87.019531 15.058594 84.941406 C 13.761719 80.539062 12.441406 76.160156 11.121094 71.761719 L 10.199219 68.71875 C 9.640625 66.859375 9.078125 64.980469 8.519531 63.121094 L 7.859375 60.898438 C 7.820312 60.78125 7.800781 60.679688 7.761719 60.558594 L 7.71875 60.398438 L 7.71875 103.28125 Z M 39.398438 87.519531 L 39.5 87.660156 C 39.660156 87.878906 39.71875 88.078125 39.761719 88.28125 C 40.378906 90.679688 40.980469 93.101562 41.601562 95.5 C 42.160156 97.660156 42.699219 99.820312 43.261719 101.960938 C 43.378906 102.421875 43.378906 102.421875 43.839844 102.421875 L 58.078125 102.421875 C 58.398438 102.421875 58.398438 102.421875 58.519531 102.039062 L 58.539062 101.960938 C 59.460938 98.898438 60.359375 95.839844 61.28125 92.78125 L 63.300781 86.039062 C 64.921875 80.640625 66.519531 75.261719 68.121094 69.859375 C 68.820312 67.480469 69.539062 65.101562 70.238281 62.71875 L 70.820312 60.738281 C 70.839844 60.640625 70.859375 60.558594 70.898438 60.460938 C 70.898438 60.441406 70.898438 60.421875 70.921875 60.398438 C 69.441406 60.320312 55.820312 60.339844 54.761719 60.421875 C 54.640625 60.898438 54.519531 61.398438 54.398438 61.878906 C 54.101562 63.078125 53.800781 64.339844 53.5 65.558594 C 53.300781 66.441406 53.078125 67.339844 52.878906 68.21875 C 52.679688 69.058594 52.5 69.921875 52.300781 70.761719 C 52.160156 71.378906 52.019531 72 51.878906 72.601562 C 51.621094 73.699219 51.359375 74.839844 51.078125 75.960938 L 51.058594 76.039062 L 50.800781 76.019531 L 50.601562 75.179688 C 49.378906 70.238281 48.179688 65.320312 46.960938 60.359375 C 41.921875 60.359375 36.898438 60.359375 31.839844 60.359375 L 31.820312 60.398438 C 31.800781 60.460938 31.78125 60.519531 31.761719 60.558594 L 31.179688 62.960938 C 30.578125 65.441406 29.960938 67.921875 29.359375 70.398438 C 29.101562 71.441406 28.859375 72.480469 28.601562 73.519531 C 28.421875 74.238281 28.261719 74.941406 28.078125 75.660156 C 28.058594 75.738281 28.039062 75.820312 28 75.921875 C 27.980469 75.980469 27.960938 76.039062 27.921875 76.121094 L 27.820312 76.398438 L 27.738281 76.101562 C 27.71875 76.019531 27.699219 75.941406 27.679688 75.878906 C 27.640625 75.78125 27.621094 75.699219 27.601562 75.601562 C 26.621094 71.441406 25.660156 67.28125 24.679688 63.121094 L 24.160156 60.859375 C 24.140625 60.761719 24.101562 60.640625 24.078125 60.539062 C 24.058594 60.480469 24.039062 60.398438 24.019531 60.339844 L 7.859375 60.339844 L 7.859375 60.359375 C 7.898438 60.480469 7.921875 60.601562 7.960938 60.699219 L 8.621094 62.921875 C 9.179688 64.78125 9.738281 66.660156 10.300781 68.519531 L 11.21875 71.558594 C 12.539062 75.960938 13.839844 80.339844 15.160156 84.738281 C 15.78125 86.820312 16.398438 88.898438 17 90.980469 C 17.621094 93.058594 18.21875 95.140625 18.839844 97.21875 C 19.199219 98.421875 19.578125 99.621094 19.941406 100.800781 L 20.320312 102.058594 C 20.398438 102.320312 20.398438 102.320312 20.679688 102.339844 C 20.71875 102.339844 20.761719 102.339844 20.800781 102.339844 L 34.980469 102.339844 C 35.058594 102.339844 35.121094 102.339844 35.199219 102.339844 C 35.339844 102.339844 35.398438 102.300781 35.421875 102.179688 C 35.441406 102.121094 35.460938 102.058594 35.460938 102 C 35.460938 101.980469 35.480469 101.941406 35.480469 101.921875 C 35.738281 100.921875 36 99.898438 36.261719 98.898438 C 36.71875 97.160156 37.160156 95.421875 37.621094 93.660156 C 37.980469 92.261719 38.359375 90.878906 38.738281 89.480469 L 39.160156 87.898438 C 39.179688 87.820312 39.21875 87.761719 39.238281 87.679688 C 39.261719 87.640625 39.261719 87.621094 39.28125 87.578125 Z M 204.101562 31.179688 L 204.320312 31.378906 L 204.121094 31.601562 C 204.039062 31.679688 203.941406 31.78125 203.859375 31.859375 L 203.339844 32.378906 C 202.761719 32.960938 202.160156 33.558594 201.558594 34.160156 C 200.960938 34.738281 200.460938 35.378906 200.039062 36.078125 C 199.839844 36.421875 199.761719 36.71875 199.761719 37.078125 C 199.761719 37.640625 199.761719 38.199219 199.761719 38.78125 C 199.761719 39.761719 199.761719 40.800781 199.78125 41.800781 C 199.800781 42.960938 200.101562 44.121094 200.660156 45.199219 C 201.339844 46.519531 202.339844 47.539062 203.738281 48.300781 C 204.660156 48.820312 205.601562 49.359375 206.5 49.898438 C 207.339844 50.378906 208.199219 50.878906 209.058594 51.378906 C 209.980469 51.898438 210.941406 52.421875 211.859375 52.921875 C 212.441406 53.238281 213 53.539062 213.578125 53.859375 C 215.019531 54.660156 216.558594 54.980469 218.140625 54.800781 C 219.261719 54.679688 220.21875 54.398438 221.058594 53.921875 C 222.660156 53.039062 224.21875 52.140625 226.078125 51.058594 C 227.71875 50.101562 229.441406 49.078125 231.359375 47.941406 C 232.558594 47.21875 233.398438 46.378906 233.941406 45.378906 C 234.660156 44.039062 234.980469 42.839844 234.921875 41.578125 C 234.898438 41.039062 234.898438 40.5 234.898438 39.960938 C 234.898438 39.398438 234.921875 38.820312 234.878906 38.261719 C 234.800781 36.820312 234.78125 35.339844 234.78125 33.921875 C 234.78125 33.320312 234.78125 32.71875 234.761719 32.140625 L 234.761719 32.121094 C 234.761719 32 234.761719 31.878906 234.78125 31.761719 C 235 30.679688 234.878906 29.578125 234.738281 28.761719 C 234.378906 26.519531 233.160156 24.761719 231.101562 23.539062 C 229.558594 22.621094 228.179688 21.820312 226.878906 21.078125 C 224.839844 19.941406 222.78125 18.800781 221 17.839844 C 219.761719 17.160156 218.421875 16.839844 217.039062 16.898438 C 215.839844 16.941406 214.660156 17.28125 213.519531 17.878906 C 211.878906 18.761719 210.238281 19.699219 208.640625 20.621094 L 207.800781 21.101562 C 207.101562 21.5 206.378906 21.921875 205.679688 22.339844 C 204.941406 22.78125 204.179688 23.21875 203.421875 23.660156 C 201.660156 24.660156 200.519531 26.160156 200.019531 28.140625 C 199.78125 29.101562 199.660156 29.980469 199.660156 30.839844 C 199.660156 32.121094 199.679688 33.398438 199.71875 34.660156 C 199.71875 35.101562 199.738281 35.539062 199.738281 35.980469 L 199.859375 35.820312 C 199.941406 35.699219 200 35.601562 200.078125 35.480469 C 200.238281 35.21875 200.421875 34.941406 200.640625 34.71875 C 201.378906 33.960938 202.140625 33.199219 202.878906 32.460938 L 203.5 31.839844 C 203.640625 31.699219 203.78125 31.578125 203.921875 31.460938 C 203.980469 31.398438 204.039062 31.359375 204.101562 31.300781 Z M 228.578125 102.621094 L 228.578125 102.019531 C 228.578125 100.660156 228.578125 99.300781 228.578125 97.941406 C 228.578125 95.941406 228.578125 93.921875 228.578125 91.921875 C 228.578125 89.71875 228.558594 87.5 228.558594 85.300781 L 228.480469 66.238281 C 228.460938 63.621094 228.460938 60.921875 228.441406 58.261719 C 228.441406 57.859375 228.558594 57.640625 228.898438 57.441406 C 230.800781 56.359375 232.71875 55.28125 234.558594 54.199219 C 235.398438 53.71875 236.238281 53.238281 237.078125 52.761719 C 238.460938 51.960938 239.839844 51.179688 241.21875 50.398438 L 241.820312 50.058594 C 242.519531 49.660156 243.21875 49.261719 243.941406 48.859375 L 244.539062 48.519531 C 244.601562 48.480469 244.660156 48.460938 244.738281 48.421875 L 245 48.300781 L 245 48.460938 C 245 48.519531 245 48.578125 245.019531 48.640625 C 245.019531 48.738281 245.039062 48.839844 245.039062 48.921875 C 245.039062 51.28125 245.058594 53.640625 245.058594 56 C 245.058594 57.898438 245.058594 59.820312 245.058594 61.71875 C 245.058594 64.578125 245.058594 67.441406 245.078125 70.320312 C 245.101562 73.960938 245.101562 77.621094 245.121094 81.261719 C 245.121094 83.921875 245.140625 86.601562 245.140625 89.261719 C 245.140625 91.738281 245.160156 94.21875 245.160156 96.699219 L 245.160156 100.421875 C 245.160156 100.859375 245.160156 101.320312 245.160156 101.78125 L 245.160156 102.601562 L 245.058594 102.601562 C 239.578125 102.601562 234.160156 102.601562 228.679688 102.601562 L 228.578125 102.601562 Z M 244.800781 48.621094 C 244.71875 48.660156 244.679688 48.679688 244.621094 48.71875 L 244.019531 49.058594 C 243.320312 49.460938 242.621094 49.859375 241.921875 50.261719 L 241.320312 50.601562 C 239.941406 51.378906 238.558594 52.179688 237.179688 52.960938 C 236.339844 53.441406 235.5 53.921875 234.660156 54.398438 C 232.800781 55.460938 230.878906 56.558594 229 57.640625 C 228.71875 57.800781 228.640625 57.960938 228.640625 58.28125 C 228.660156 60.941406 228.679688 63.640625 228.679688 66.261719 L 228.761719 85.320312 C 228.761719 87.519531 228.78125 89.738281 228.78125 91.941406 C 228.78125 93.941406 228.78125 95.960938 228.78125 97.960938 C 228.78125 99.320312 228.78125 100.679688 228.78125 102.039062 L 228.78125 102.441406 C 234.199219 102.441406 239.539062 102.441406 244.960938 102.441406 L 244.960938 101.800781 C 244.960938 101.339844 244.960938 100.878906 244.960938 100.441406 L 244.960938 96.71875 C 244.960938 94.238281 244.960938 91.761719 244.941406 89.28125 C 244.941406 86.621094 244.921875 83.941406 244.921875 81.28125 C 244.898438 77.640625 244.898438 73.980469 244.878906 70.339844 C 244.878906 67.480469 244.859375 64.621094 244.859375 61.738281 C 244.859375 59.839844 244.859375 57.921875 244.859375 56.019531 C 244.859375 53.660156 244.859375 51.320312 244.839844 48.960938 C 244.839844 48.859375 244.839844 48.761719 244.820312 48.679688 C 244.820312 48.640625 244.800781 48.640625 244.800781 48.621094 Z M 225.441406 102.621094 L 208.921875 102.621094 L 208.921875 60.199219 L 225.441406 60.199219 Z M 209.140625 102.421875 L 225.261719 102.421875 L 225.261719 60.398438 L 209.140625 60.398438 Z M 209.140625 102.421875 "/>
<path style="fill-rule:nonzero;fill:rgb(100%,100%,100%);fill-opacity:1;stroke-width:1;stroke-linecap:butt;stroke-linejoin:miter;stroke:rgb(100%,100%,100%);stroke-opacity:1;stroke-miterlimit:10;" d="M 709.492188 516.894531 C 707.597656 516.601562 705.703125 516.308594 703.808594 516.09375 C 691.601562 514.609375 680.292969 510.605469 669.902344 504.199219 C 669.492188 503.90625 669.003906 503.691406 668.59375 503.398438 C 668.59375 503.398438 668.496094 503.398438 668.105469 503.496094 C 668.105469 506.40625 668.105469 509.394531 668.105469 512.304688 C 666.308594 512.792969 589.296875 512.890625 586.308594 512.5 C 585.898438 510.898438 585.703125 211.40625 586.09375 208.105469 C 587.597656 207.597656 664.101562 207.402344 667.890625 207.890625 C 668.007812 211.601562 667.890625 215.292969 668.007812 219.101562 C 668.007812 223.007812 668.007812 226.796875 668.007812 230.703125 C 668.007812 234.492188 668.007812 238.300781 668.007812 241.992188 C 668.007812 245.703125 668.007812 249.609375 668.007812 253.300781 C 668.007812 257.207031 668.007812 260.996094 668.007812 264.902344 C 668.007812 268.691406 668.007812 272.5 668.007812 276.191406 C 668.007812 279.902344 668.007812 283.808594 668.007812 287.5 C 668.007812 291.40625 668.007812 295.195312 668.007812 299.101562 C 668.007812 302.890625 668.007812 306.601562 668.007812 310.703125 C 668.90625 310.195312 669.492188 310 670 309.609375 C 682.207031 302.207031 695.390625 298.105469 709.707031 297.207031 C 724.492188 296.308594 738.808594 298.691406 752.402344 304.902344 C 757.207031 307.109375 761.699219 309.804688 765.898438 312.890625 C 779.902344 323.398438 790.703125 336.503906 798.59375 352.109375 C 805 364.804688 808.300781 378.300781 809.609375 392.304688 C 811.308594 409.707031 810.195312 426.796875 805.390625 443.59375 C 804.199219 447.792969 802.792969 451.992188 801.09375 455.996094 C 795.195312 469.394531 787.402344 481.40625 776.796875 491.601562 C 770.703125 497.5 764.003906 502.695312 756.503906 506.601562 C 746.09375 511.992188 735.097656 515.292969 723.398438 516.09375 C 722.597656 516.191406 721.796875 516.40625 720.996094 516.503906 C 717.207031 516.894531 713.398438 516.894531 709.492188 516.894531 Z M 668.691406 406.40625 C 668.808594 407.597656 668.808594 408.59375 668.90625 409.707031 C 669.902344 418.691406 673.398438 426.308594 680.703125 431.992188 C 691.09375 440 705.195312 439.394531 714.707031 430.292969 C 724.804688 420.703125 727.5 404.609375 721.191406 392.207031 C 713.300781 376.601562 693.496094 370.292969 678.300781 383.90625 C 671.699219 389.902344 668.808594 397.695312 668.691406 406.40625 Z M 668.691406 406.40625 " transform="matrix(0.2,0,0,0.2,0,0)"/>
<path style="fill-rule:nonzero;fill:rgb(100%,100%,100%);fill-opacity:1;stroke-width:1;stroke-linecap:butt;stroke-linejoin:miter;stroke:rgb(100%,100%,100%);stroke-opacity:1;stroke-miterlimit:10;" d="M 1326.699219 516.894531 C 1324.804688 516.601562 1322.890625 516.308594 1320.996094 516.09375 C 1308.105469 514.492188 1296.09375 510.195312 1285.195312 503.105469 C 1277.304688 498.007812 1270.390625 491.796875 1264.296875 484.609375 C 1250.390625 468.496094 1242.597656 449.609375 1239.492188 428.691406 C 1236.894531 410.800781 1237.304688 393.105469 1241.40625 375.507812 C 1244.492188 362.109375 1249.707031 349.492188 1257.695312 338.300781 C 1264.394531 328.808594 1272.207031 320.292969 1281.796875 313.496094 C 1293.90625 304.804688 1307.304688 299.609375 1322.207031 298.007812 C 1337.109375 296.40625 1351.503906 297.890625 1365.390625 303.496094 C 1369.707031 305.292969 1373.691406 307.597656 1377.890625 309.707031 C 1378.59375 310 1379.199219 310.390625 1379.707031 310.800781 C 1379.902344 310.703125 1380 310.703125 1380 310.703125 C 1380.097656 310.703125 1380.097656 310.605469 1380.097656 310.507812 C 1380.097656 310.390625 1380.195312 310.195312 1380.195312 310.097656 C 1380.195312 310 1380.195312 310 1380.195312 309.902344 C 1380.195312 309.804688 1380.195312 309.609375 1380.195312 309.492188 C 1380.195312 276.09375 1380.195312 242.597656 1380.195312 209.199219 C 1380.195312 209.101562 1380.195312 209.101562 1380.195312 209.003906 C 1380.195312 208.90625 1380.195312 208.90625 1380.195312 208.808594 C 1380.195312 208.691406 1380.195312 208.691406 1380.292969 208.59375 C 1380.292969 208.496094 1380.390625 208.496094 1380.507812 208.203125 C 1407.5 208.203125 1434.609375 208.203125 1461.699219 208.203125 C 1461.796875 208.203125 1461.796875 208.300781 1461.894531 208.300781 C 1461.992188 208.300781 1461.992188 208.398438 1461.992188 208.496094 C 1462.109375 209.003906 1462.207031 209.492188 1462.207031 210 C 1462.207031 310.703125 1462.207031 411.40625 1462.207031 511.992188 C 1462.207031 512.207031 1462.109375 512.402344 1461.992188 512.792969 C 1434.902344 512.792969 1407.792969 512.792969 1380.507812 512.792969 C 1380.507812 509.804688 1380.507812 506.796875 1380.507812 503.808594 C 1379.394531 503.398438 1378.90625 504.101562 1378.300781 504.492188 C 1372.304688 508.203125 1365.898438 511.191406 1359.101562 513.203125 C 1353.300781 515 1347.304688 516.191406 1341.191406 516.699219 C 1340.605469 516.699219 1339.902344 516.992188 1339.296875 517.109375 C 1335 516.894531 1330.800781 516.894531 1326.699219 516.894531 Z M 1379.296875 408.59375 C 1379.394531 400.390625 1377.792969 394.707031 1374.394531 389.492188 C 1363.203125 372.304688 1340.195312 371.992188 1328.398438 389.609375 C 1319.394531 403.105469 1323.691406 422.109375 1334.101562 430.898438 C 1344.609375 439.707031 1359.101562 439.902344 1369.101562 430.605469 C 1376.09375 424.101562 1379.101562 415.898438 1379.296875 408.59375 Z M 1379.296875 408.59375 " transform="matrix(0.2,0,0,0.2,0,0)"/>
<path style="fill-rule:nonzero;fill:rgb(100%,100%,100%);fill-opacity:1;stroke-width:1;stroke-linecap:butt;stroke-linejoin:miter;stroke:rgb(100%,100%,100%);stroke-opacity:1;stroke-miterlimit:10;" d="M 456.796875 516.894531 C 455.605469 516.699219 454.492188 516.503906 453.300781 516.40625 C 439.902344 515.703125 426.894531 513.203125 414.296875 508.398438 C 405.800781 505.195312 397.890625 500.800781 390.390625 495.703125 C 381.40625 489.609375 373.59375 482.109375 366.601562 473.691406 C 354.296875 459.003906 347.207031 442.109375 344.707031 423.203125 C 342.402344 406.503906 343.496094 390.097656 348.300781 373.90625 C 351.699219 362.695312 356.796875 352.402344 363.808594 343.105469 C 370.390625 334.394531 377.890625 326.503906 386.796875 320 C 401.796875 308.90625 418.496094 301.894531 436.894531 299.003906 C 447.304688 297.304688 457.890625 296.992188 468.398438 297.695312 C 482.207031 298.59375 495.507812 301.601562 508.203125 307.207031 C 516.992188 311.09375 524.902344 316.09375 532.402344 321.992188 C 542.304688 329.902344 550.605469 339.199219 557.5 349.804688 C 565.292969 361.699219 569.804688 374.707031 572.109375 388.59375 C 573.496094 396.992188 573.691406 405.390625 573.300781 413.90625 C 573.007812 420.390625 571.992188 426.894531 570.390625 433.203125 C 570.195312 433.808594 570 434.492188 569.804688 435.292969 C 524.101562 435.292969 478.398438 435.292969 432.304688 435.292969 C 432.792969 436.308594 433.007812 437.109375 433.398438 437.695312 C 438.398438 446.09375 445.703125 451.503906 455.390625 453.203125 C 463.203125 454.609375 470.898438 454.296875 478.300781 450.996094 C 482.304688 449.199219 485.996094 446.796875 489.101562 443.59375 C 490.097656 442.597656 491.09375 442.207031 492.597656 442.402344 C 502.890625 444.003906 513.300781 445.507812 523.59375 447.109375 C 534.902344 448.808594 546.308594 450.507812 557.695312 452.207031 C 561.40625 452.695312 565 453.300781 568.90625 453.808594 C 568.59375 454.492188 568.496094 455.097656 568.203125 455.605469 C 565.800781 460.605469 563.105469 465.292969 559.902344 469.707031 C 553.007812 479.003906 545.195312 487.304688 535.703125 494.101562 C 521.699219 504.101562 506.09375 510.605469 489.199219 513.90625 C 482.792969 515.195312 476.308594 515.996094 469.804688 516.308594 C 468.90625 516.308594 468.105469 516.601562 467.207031 516.699219 C 463.59375 516.894531 460.195312 516.894531 456.796875 516.894531 Z M 432.207031 378.59375 C 433.398438 378.691406 434.003906 378.691406 434.707031 378.691406 C 453.203125 378.691406 471.699219 378.59375 490.195312 378.59375 C 490.292969 378.59375 490.292969 378.59375 490.390625 378.496094 C 490.390625 378.496094 490.390625 378.398438 490.507812 378.203125 C 490.507812 378.105469 490.507812 377.792969 490.390625 377.597656 C 486.894531 370.800781 481.796875 365.507812 474.707031 362.5 C 464.101562 358.105469 447.304688 358.691406 437.792969 370.195312 C 437.597656 370.390625 437.402344 370.605469 437.207031 370.800781 C 435.195312 373.105469 433.59375 375.605469 432.207031 378.59375 Z M 432.207031 378.59375 " transform="matrix(0.2,0,0,0.2,0,0)"/>
<path style="fill-rule:nonzero;fill:rgb(100%,100%,100%);fill-opacity:1;stroke-width:1;stroke-linecap:butt;stroke-linejoin:miter;stroke:rgb(100%,100%,100%);stroke-opacity:1;stroke-miterlimit:10;" d="M 893.300781 516.894531 C 891.601562 516.601562 890 516.308594 888.300781 516.09375 C 874.707031 514.296875 862.792969 508.808594 852.207031 500.195312 C 841.503906 491.503906 833.203125 481.09375 828.203125 468.203125 C 824.609375 458.808594 822.695312 449.003906 822.695312 438.90625 C 822.695312 394.101562 822.695312 349.296875 822.695312 304.609375 C 822.695312 303.59375 822.695312 302.695312 822.695312 301.796875 C 824.609375 301.308594 902.5 301.191406 904.902344 301.699219 C 904.902344 302.597656 904.902344 303.496094 904.902344 304.492188 C 904.902344 342.402344 904.902344 380.292969 904.902344 418.105469 C 904.902344 422.890625 905.800781 427.5 908.007812 431.796875 C 910 435.605469 912.792969 438.808594 916.503906 440.898438 C 923.808594 445.097656 933.398438 443.59375 939.296875 437.304688 C 940.800781 435.703125 942.109375 433.808594 943.105469 431.894531 C 945.605469 427.5 946.40625 422.695312 946.40625 417.597656 C 946.308594 403.007812 946.40625 388.398438 946.40625 373.808594 C 946.40625 350.703125 946.40625 327.695312 946.40625 304.609375 C 946.40625 303.59375 946.40625 302.695312 946.40625 301.894531 C 946.601562 301.699219 946.601562 301.601562 946.699219 301.601562 C 946.699219 301.601562 946.796875 301.503906 946.894531 301.503906 C 947.207031 301.40625 947.5 301.40625 947.792969 301.40625 C 974.296875 301.40625 1000.703125 301.40625 1027.207031 301.40625 C 1027.5 301.40625 1027.792969 301.503906 1028.007812 301.503906 C 1028.496094 303.105469 1028.691406 509.199219 1028.203125 512.5 C 1026.601562 512.890625 949.199219 513.007812 946.503906 512.597656 C 946.503906 508.398438 946.503906 504.101562 946.503906 499.707031 C 945.195312 499.707031 944.609375 500.507812 943.90625 501.09375 C 937.695312 506.40625 930.800781 510.507812 923.007812 513.105469 C 917.695312 514.902344 912.304688 516.09375 906.699219 516.503906 C 906.09375 516.503906 905.390625 516.796875 904.804688 516.894531 C 900.996094 516.894531 897.109375 516.894531 893.300781 516.894531 Z M 893.300781 516.894531 " transform="matrix(0.2,0,0,0.2,0,0)"/>
<path style="fill-rule:nonzero;fill:rgb(100%,100%,100%);fill-opacity:1;stroke-width:1;stroke-linecap:butt;stroke-linejoin:miter;stroke:rgb(100%,100%,100%);stroke-opacity:1;stroke-miterlimit:10;" d="M 158.808594 301.601562 C 184.296875 301.601562 209.609375 301.601562 235.097656 301.601562 C 241.503906 327.695312 247.890625 353.808594 254.296875 379.902344 C 254.492188 379.902344 254.609375 379.902344 254.804688 379.902344 C 256.992188 371.308594 258.90625 362.5 260.898438 353.90625 C 262.890625 345.292969 264.804688 336.601562 266.894531 327.890625 C 269.003906 319.199219 271.09375 310.507812 273.300781 301.894531 C 275 301.503906 351.992188 301.308594 355.195312 301.796875 C 355 302.597656 354.804688 303.300781 354.609375 304.003906 C 350.097656 319.199219 345.605469 334.394531 341.09375 349.609375 C 333.105469 376.601562 325 403.496094 316.992188 430.507812 C 309.101562 456.992188 301.09375 483.496094 293.203125 510.097656 C 292.304688 513.007812 292.5 512.695312 289.804688 512.695312 C 266.308594 512.695312 242.792969 512.695312 219.296875 512.695312 C 216.601562 512.695312 216.601562 512.695312 215.898438 510 C 210.097656 487.207031 204.296875 464.394531 198.398438 441.601562 C 198.203125 440.605469 197.792969 439.707031 197.207031 438.691406 C 196.992188 439.199219 196.699219 439.707031 196.601562 440.195312 C 194.003906 449.804688 191.40625 459.296875 188.90625 468.90625 C 185.292969 482.695312 181.699219 496.40625 178.105469 510.195312 C 178.007812 510.605469 177.792969 510.996094 177.695312 511.503906 C 177.5 512.402344 176.894531 512.695312 176.09375 512.695312 C 175.605469 512.695312 175.097656 512.695312 174.492188 512.695312 C 151.09375 512.695312 127.792969 512.695312 104.394531 512.695312 C 104.101562 512.695312 103.808594 512.695312 103.496094 512.695312 C 101.699219 512.695312 101.699219 512.695312 101.191406 510.996094 C 98.691406 502.890625 96.191406 494.902344 93.808594 486.796875 C 87.597656 465.996094 81.503906 445.195312 75.292969 424.394531 C 67.207031 397.402344 59.101562 370.390625 51.09375 343.300781 C 47.207031 330.292969 43.203125 317.207031 39.296875 304.199219 C 39.101562 303.398438 38.90625 302.695312 38.59375 301.699219 C 65.996094 301.699219 93.203125 301.699219 120.507812 301.699219 C 120.800781 302.792969 120.996094 303.808594 121.308594 304.804688 C 126.992188 329.394531 132.792969 354.003906 138.496094 378.59375 C 138.59375 379.199219 138.90625 379.804688 139.199219 380.996094 C 139.609375 379.902344 139.902344 379.296875 140 378.691406 C 142.109375 369.902344 144.199219 361.09375 146.308594 352.304688 C 150.292969 335.898438 154.296875 319.492188 158.300781 303.105469 C 158.398438 302.597656 158.59375 302.207031 158.808594 301.601562 Z M 158.808594 301.601562 " transform="matrix(0.2,0,0,0.2,0,0)"/>
<path style="fill-rule:nonzero;fill:rgb(100%,100%,100%);fill-opacity:1;stroke-width:1;stroke-linecap:butt;stroke-linejoin:miter;stroke:rgb(100%,100%,100%);stroke-opacity:1;stroke-miterlimit:10;" d="M 1020.507812 156.601562 C 1019.492188 157.5 1018.496094 158.300781 1017.5 159.296875 C 1012.695312 164.101562 1007.890625 168.808594 1003.203125 173.59375 C 1001.699219 175.195312 1000.605469 177.207031 999.394531 179.003906 C 999.003906 179.609375 998.59375 180.195312 998.203125 180.800781 C 998.007812 180.605469 998.007812 180.605469 998.007812 180.507812 C 997.792969 171.601562 997.597656 162.695312 997.597656 153.808594 C 997.597656 149.199219 998.300781 144.609375 999.394531 140.195312 C 1001.992188 130.195312 1007.597656 122.597656 1016.601562 117.5 C 1023.90625 113.300781 1031.191406 109.003906 1038.496094 104.804688 C 1048.007812 99.394531 1057.5 93.90625 1067.207031 88.691406 C 1072.695312 85.703125 1078.691406 83.90625 1085 83.691406 C 1092.109375 83.496094 1098.808594 85.097656 1105.097656 88.496094 C 1114.902344 93.90625 1124.707031 99.296875 1134.492188 104.707031 C 1141.601562 108.691406 1148.59375 112.792969 1155.605469 116.992188 C 1165.703125 123.007812 1172.207031 131.796875 1174.003906 143.398438 C 1174.804688 148.398438 1175.195312 153.496094 1174.199219 158.59375 C 1174.101562 159.199219 1174.101562 159.804688 1174.101562 160.390625 C 1174.296875 170.605469 1174.101562 180.898438 1174.707031 190.996094 C 1175 196.601562 1174.609375 202.109375 1174.902344 207.597656 C 1175.195312 214.609375 1173.203125 220.898438 1170 226.894531 C 1166.894531 232.5 1162.304688 236.601562 1156.894531 239.902344 C 1148.105469 245.195312 1139.296875 250.390625 1130.507812 255.507812 C 1122.207031 260.292969 1113.808594 265.195312 1105.390625 269.804688 C 1100.800781 272.304688 1095.800781 273.691406 1090.605469 274.199219 C 1082.402344 275.097656 1074.707031 273.398438 1067.5 269.394531 C 1060 265.292969 1052.402344 261.191406 1044.902344 256.992188 C 1035.996094 251.992188 1027.207031 246.699219 1018.300781 241.699219 C 1011.601562 237.890625 1006.308594 232.792969 1002.792969 225.996094 C 1000 220.605469 998.398438 214.804688 998.300781 208.691406 C 998.203125 200.800781 998.203125 193.007812 998.203125 185.097656 C 998.203125 183.203125 998.691406 181.503906 999.707031 179.902344 C 1001.796875 176.308594 1004.394531 173.105469 1007.402344 170.195312 C 1011.308594 166.40625 1015.097656 162.597656 1018.90625 158.808594 C 1019.609375 158.105469 1020.195312 157.5 1020.898438 156.796875 C 1020.800781 156.796875 1020.605469 156.699219 1020.507812 156.601562 Z M 1087.109375 146.601562 C 1084.492188 146.503906 1082.5 146.601562 1080.703125 147.792969 C 1079.609375 148.496094 1078.691406 149.296875 1077.792969 150.195312 C 1070.507812 157.304688 1063.007812 164.101562 1056.308594 171.796875 C 1054.707031 173.691406 1054.003906 175.703125 1053.808594 178.007812 C 1053.398438 182.597656 1055.292969 186.191406 1058.496094 189.296875 C 1062.304688 192.890625 1066.09375 196.601562 1069.902344 200.292969 C 1073.300781 203.496094 1076.699219 206.699219 1080.195312 209.804688 C 1081.191406 210.703125 1082.402344 211.40625 1083.691406 211.601562 C 1088.203125 212.304688 1092.304688 211.796875 1095.800781 208.203125 C 1102.304688 201.503906 1109.003906 195 1115.507812 188.300781 C 1116.601562 187.207031 1117.792969 185.996094 1118.300781 184.707031 C 1120.292969 179.394531 1119.902344 174.394531 1115.292969 170.097656 C 1114.394531 169.199219 1113.496094 168.398438 1112.597656 167.5 C 1106.503906 161.503906 1100.390625 155.605469 1094.394531 149.492188 C 1092.109375 147.304688 1089.707031 146.308594 1087.109375 146.601562 Z M 1138.007812 142.890625 C 1137.207031 140.898438 1136.894531 140.605469 1135.390625 140 C 1136.308594 141.09375 1137.207031 141.992188 1138.007812 142.890625 Z M 1142.109375 149.296875 C 1142.207031 149.296875 1142.304688 149.199219 1142.402344 149.199219 C 1142.207031 148.808594 1142.109375 148.496094 1141.894531 148.105469 C 1141.796875 148.105469 1141.699219 148.203125 1141.601562 148.203125 C 1141.796875 148.59375 1141.894531 148.90625 1142.109375 149.296875 Z M 1142.109375 149.296875 " transform="matrix(0.2,0,0,0.2,0,0)"/>
<path style="fill-rule:nonzero;fill:rgb(100%,100%,100%);fill-opacity:1;stroke-width:1;stroke-linecap:butt;stroke-linejoin:miter;stroke:rgb(100%,100%,100%);stroke-opacity:1;stroke-miterlimit:10;" d="M 1225.292969 512.597656 C 1197.890625 512.597656 1170.800781 512.597656 1143.398438 512.597656 C 1143.398438 511.699219 1143.398438 510.898438 1143.398438 510.097656 C 1143.398438 493.300781 1143.398438 476.40625 1143.300781 459.609375 C 1143.300781 448.59375 1143.203125 437.5 1143.203125 426.503906 C 1143.105469 400 1143.007812 373.59375 1142.792969 347.109375 C 1142.695312 328.496094 1142.695312 309.902344 1142.5 291.308594 C 1142.5 289.492188 1143.007812 288.496094 1144.609375 287.597656 C 1158.300781 279.902344 1171.894531 271.992188 1185.507812 264.199219 C 1193.398438 259.707031 1201.308594 255.195312 1209.296875 250.703125 C 1213.808594 248.105469 1218.300781 245.605469 1222.890625 243.007812 C 1223.300781 242.792969 1223.808594 242.597656 1224.492188 242.207031 C 1224.609375 243.105469 1224.609375 243.808594 1224.609375 244.492188 C 1224.609375 256.308594 1224.707031 268.105469 1224.707031 279.902344 C 1224.707031 303.808594 1224.804688 327.597656 1224.804688 351.503906 C 1224.902344 383.105469 1225 414.609375 1225.097656 446.191406 C 1225.195312 464.804688 1225.195312 483.398438 1225.195312 501.992188 C 1225.292969 505.605469 1225.292969 509.003906 1225.292969 512.597656 Z M 1225.292969 512.597656 " transform="matrix(0.2,0,0,0.2,0,0)"/>
<path style="fill-rule:nonzero;fill:rgb(100%,100%,100%);fill-opacity:1;stroke-width:1;stroke-linecap:butt;stroke-linejoin:miter;stroke:rgb(100%,100%,100%);stroke-opacity:1;stroke-miterlimit:10;" d="M 1126.699219 512.597656 C 1099.492188 512.597656 1072.402344 512.597656 1045.097656 512.597656 C 1045.097656 442.207031 1045.097656 371.894531 1045.097656 301.40625 C 1072.304688 301.40625 1099.394531 301.40625 1126.699219 301.40625 C 1126.699219 371.894531 1126.699219 442.207031 1126.699219 512.597656 Z M 1126.699219 512.597656 " transform="matrix(0.2,0,0,0.2,0,0)"/>
<path style="fill-rule:nonzero;fill:rgb(100%,100%,100%);fill-opacity:1;stroke-width:1;stroke-linecap:butt;stroke-linejoin:miter;stroke:rgb(100%,100%,100%);stroke-opacity:1;stroke-miterlimit:10;" d="M 474.707031 362.5 C 481.796875 365.507812 486.894531 370.703125 490.390625 377.597656 C 490.507812 377.792969 490.507812 378.007812 490.507812 378.203125 C 490.507812 378.300781 490.507812 378.398438 490.390625 378.496094 C 490.390625 378.496094 490.292969 378.59375 490.195312 378.59375 C 471.699219 378.59375 453.203125 378.691406 434.707031 378.691406 C 434.101562 378.691406 433.398438 378.59375 432.207031 378.59375 C 433.59375 375.605469 435.195312 373.105469 437.109375 370.898438 C 437.304688 370.703125 437.5 370.507812 437.695312 370.292969 " transform="matrix(0.2,0,0,0.2,0,0)"/>
<path style="fill-rule:nonzero;fill:rgb(100%,100%,100%);fill-opacity:1;stroke-width:1;stroke-linecap:butt;stroke-linejoin:miter;stroke:rgb(100%,100%,100%);stroke-opacity:1;stroke-miterlimit:10;" d="M 1138.007812 142.890625 C 1137.207031 141.992188 1136.40625 141.09375 1135.390625 140 C 1136.796875 140.605469 1137.109375 140.898438 1138.007812 142.890625 Z M 1138.007812 142.890625 " transform="matrix(0.2,0,0,0.2,0,0)"/>
<path style="fill-rule:nonzero;fill:rgb(100%,100%,100%);fill-opacity:1;stroke-width:1;stroke-linecap:butt;stroke-linejoin:miter;stroke:rgb(100%,100%,100%);stroke-opacity:1;stroke-miterlimit:10;" d="M 1142.109375 149.296875 C 1141.894531 148.90625 1141.796875 148.59375 1141.601562 148.203125 C 1141.699219 148.203125 1141.796875 148.105469 1141.894531 148.105469 C 1142.109375 148.496094 1142.207031 148.808594 1142.402344 149.199219 C 1142.304688 149.199219 1142.207031 149.296875 1142.109375 149.296875 Z M 1142.109375 149.296875 " transform="matrix(0.2,0,0,0.2,0,0)"/>
</g>
</svg>
