<?xml version="1.0" encoding="UTF-8"?>
<svg xmlns="http://www.w3.org/2000/svg" xmlns:xlink="http://www.w3.org/1999/xlink" width="150pt" height="60pt" viewBox="0 0 150 60" version="1.1">
<g id="surface1">
<path style=" stroke:none;fill-rule:nonzero;fill:rgb(100%,100%,100%);fill-opacity:1;" d="M 146.289062 51.738281 L 133.488281 51.738281 L 133.898438 51.640625 C 133.921875 51.640625 133.941406 51.628906 133.949219 51.628906 C 134 51.621094 134.039062 51.601562 134.089844 51.601562 C 134.660156 51.550781 135.261719 51.441406 135.871094 51.261719 C 136.511719 51.070312 137.140625 50.78125 137.78125 50.390625 C 137.789062 50.378906 137.800781 50.378906 137.808594 50.371094 C 137.859375 50.328125 137.929688 50.28125 138.039062 50.320312 L 138.070312 50.328125 L 138.070312 51.21875 L 146.140625 51.21875 C 146.140625 51.210938 146.148438 51.199219 146.148438 51.199219 C 146.148438 41.128906 146.148438 31.058594 146.148438 20.988281 C 146.148438 20.960938 146.148438 20.921875 146.140625 20.878906 L 146.140625 20.851562 L 138.070312 20.851562 L 138.058594 20.871094 C 138.058594 20.871094 138.058594 20.871094 138.058594 20.878906 C 138.058594 20.890625 138.058594 20.898438 138.058594 20.898438 L 138.058594 30.929688 C 138.058594 30.949219 138.058594 30.960938 138.058594 30.980469 C 138.058594 30.988281 138.058594 31 138.058594 31.011719 C 138.058594 31.019531 138.058594 31.039062 138.050781 31.050781 L 138.050781 31.058594 C 138.050781 31.070312 138.039062 31.089844 138.019531 31.101562 C 138.011719 31.109375 138 31.109375 137.988281 31.121094 L 137.949219 31.128906 L 137.929688 31.121094 C 137.910156 31.109375 137.890625 31.101562 137.871094 31.089844 C 137.828125 31.070312 137.789062 31.039062 137.75 31.019531 C 137.621094 30.960938 137.5 30.890625 137.371094 30.820312 C 137.089844 30.671875 136.800781 30.519531 136.5 30.398438 C 135.171875 29.859375 133.769531 29.679688 132.199219 29.851562 C 130.75 30.011719 129.398438 30.53125 128.179688 31.398438 C 127.300781 32.03125 126.519531 32.828125 125.789062 33.871094 C 125.03125 34.941406 124.488281 36.191406 124.171875 37.578125 C 123.78125 39.289062 123.71875 41.078125 123.980469 42.878906 C 124.300781 45.039062 125.128906 46.921875 126.441406 48.449219 C 127.089844 49.199219 127.769531 49.800781 128.519531 50.289062 C 129.609375 50.988281 130.808594 51.421875 132.078125 51.578125 C 132.21875 51.601562 132.359375 51.621094 132.488281 51.640625 L 132.640625 51.660156 L 132.628906 51.761719 L 90.050781 51.761719 L 90.46875 51.660156 C 90.488281 51.660156 90.511719 51.648438 90.53125 51.648438 C 90.578125 51.640625 90.621094 51.628906 90.671875 51.621094 C 91.210938 51.570312 91.75 51.460938 92.289062 51.28125 C 93.03125 51.03125 93.71875 50.628906 94.359375 50.089844 C 94.371094 50.078125 94.378906 50.070312 94.390625 50.058594 C 94.449219 50.011719 94.53125 49.941406 94.648438 49.941406 L 94.699219 49.941406 L 94.699219 51.199219 C 95.339844 51.238281 102.191406 51.230469 102.769531 51.191406 C 102.808594 50.179688 102.789062 31.101562 102.75 30.179688 C 102.738281 30.179688 102.71875 30.171875 102.710938 30.171875 C 100.058594 30.171875 97.421875 30.171875 94.769531 30.171875 C 94.75 30.171875 94.730469 30.171875 94.710938 30.179688 L 94.691406 30.199219 L 94.691406 37.371094 C 94.691406 37.789062 94.691406 38.210938 94.691406 38.628906 C 94.691406 39.648438 94.691406 40.710938 94.691406 41.75 C 94.691406 42.308594 94.578125 42.789062 94.351562 43.210938 C 94.230469 43.429688 94.101562 43.609375 93.960938 43.761719 C 93.351562 44.398438 92.371094 44.558594 91.609375 44.128906 C 91.238281 43.921875 90.949219 43.609375 90.738281 43.199219 C 90.53125 42.789062 90.421875 42.328125 90.421875 41.800781 C 90.421875 38.960938 90.421875 36.121094 90.421875 33.28125 L 90.421875 30.210938 C 89.800781 30.171875 82.910156 30.171875 82.300781 30.21875 L 82.300781 33.808594 C 82.300781 37.171875 82.300781 40.53125 82.300781 43.878906 C 82.300781 44.871094 82.488281 45.851562 82.851562 46.789062 C 83.328125 48.019531 84.101562 49.058594 85.230469 49.96875 C 86.328125 50.851562 87.5 51.371094 88.820312 51.550781 C 88.929688 51.570312 89.039062 51.578125 89.160156 51.601562 C 89.210938 51.609375 89.269531 51.621094 89.320312 51.628906 L 89.308594 51.730469 L 72.109375 51.730469 L 72.101562 51.628906 C 72.121094 51.628906 72.148438 51.621094 72.171875 51.621094 C 72.230469 51.609375 72.28125 51.601562 72.339844 51.589844 C 73.480469 51.511719 74.578125 51.191406 75.628906 50.640625 C 76.308594 50.28125 76.96875 49.800781 77.648438 49.148438 C 78.648438 48.191406 79.441406 47.03125 80.070312 45.609375 C 80.230469 45.25 80.371094 44.851562 80.5 44.378906 C 80.960938 42.769531 81.089844 41.101562 80.921875 39.269531 C 80.769531 37.75 80.410156 36.441406 79.820312 35.261719 C 79.019531 33.691406 77.929688 32.371094 76.558594 31.351562 C 76.128906 31.03125 75.679688 30.761719 75.210938 30.550781 C 73.898438 29.960938 72.46875 29.699219 70.96875 29.789062 C 69.558594 29.871094 68.230469 30.289062 67.019531 31.019531 C 66.980469 31.039062 66.949219 31.058594 66.898438 31.089844 C 66.878906 31.101562 66.851562 31.121094 66.820312 31.128906 L 66.75 31.171875 L 66.75 22.691406 C 66.75 22.429688 66.75 22.179688 66.75 21.921875 C 66.75 21.789062 66.75 21.671875 66.75 21.539062 C 66.75 21.308594 66.75 21.070312 66.738281 20.839844 C 66.050781 20.800781 59.25 20.808594 58.660156 20.859375 C 58.628906 22.058594 58.640625 50 58.679688 51.210938 C 59.339844 51.25 66.160156 51.230469 66.761719 51.191406 L 66.761719 50.308594 L 66.800781 50.300781 C 66.808594 50.300781 66.820312 50.289062 66.828125 50.289062 C 66.851562 50.289062 66.871094 50.28125 66.890625 50.289062 C 66.929688 50.308594 66.980469 50.339844 67.03125 50.371094 C 68.089844 51.011719 69.21875 51.410156 70.398438 51.550781 C 70.53125 51.570312 70.660156 51.589844 70.789062 51.601562 L 70.96875 51.628906 L 70.960938 51.730469 L 46.699219 51.730469 L 46.691406 51.628906 C 46.71875 51.628906 46.75 51.621094 46.769531 51.609375 C 46.828125 51.601562 46.890625 51.578125 46.949219 51.578125 C 47.558594 51.558594 48.191406 51.480469 48.878906 51.339844 C 50.578125 51.011719 52.140625 50.339844 53.511719 49.359375 C 54.378906 48.738281 55.160156 47.949219 55.921875 46.929688 C 56.210938 46.539062 56.480469 46.078125 56.75 45.519531 C 56.769531 45.488281 56.78125 45.449219 56.789062 45.410156 C 56.429688 45.359375 56.078125 45.308594 55.730469 45.25 L 54.640625 45.089844 C 53.871094 44.96875 53.089844 44.859375 52.320312 44.738281 C 51.988281 44.691406 51.660156 44.640625 51.328125 44.589844 C 50.640625 44.488281 49.921875 44.378906 49.21875 44.269531 C 49.089844 44.25 49.011719 44.269531 48.921875 44.371094 C 48.621094 44.671875 48.261719 44.921875 47.828125 45.121094 C 47.148438 45.429688 46.390625 45.5 45.511719 45.351562 C 44.550781 45.179688 43.800781 44.648438 43.28125 43.78125 C 43.25 43.730469 43.230469 43.691406 43.210938 43.628906 C 43.199219 43.601562 43.179688 43.570312 43.171875 43.53125 L 43.140625 43.460938 L 56.929688 43.460938 C 56.941406 43.441406 56.941406 43.421875 56.949219 43.398438 C 56.960938 43.359375 56.96875 43.320312 56.980469 43.289062 C 57.140625 42.660156 57.238281 42.019531 57.269531 41.371094 C 57.308594 40.429688 57.269531 39.609375 57.148438 38.851562 C 56.910156 37.378906 56.429688 36.109375 55.699219 34.988281 C 55 33.921875 54.160156 32.988281 53.199219 32.230469 C 52.421875 31.609375 51.628906 31.121094 50.789062 30.75 C 49.578125 30.21875 48.25 29.898438 46.828125 29.800781 C 45.75 29.730469 44.699219 29.769531 43.691406 29.929688 C 41.851562 30.21875 40.179688 30.929688 38.699219 32.019531 C 37.871094 32.628906 37.121094 33.390625 36.410156 34.320312 C 35.71875 35.21875 35.210938 36.25 34.871094 37.390625 C 34.398438 38.949219 34.28125 40.601562 34.511719 42.300781 C 34.769531 44.21875 35.5 45.898438 36.691406 47.320312 C 37.449219 48.230469 38.21875 48.941406 39.058594 49.511719 C 39.859375 50.058594 40.640625 50.46875 41.441406 50.769531 C 42.648438 51.230469 43.960938 51.5 45.328125 51.570312 C 45.398438 51.578125 45.480469 51.589844 45.550781 51.601562 C 45.589844 51.609375 45.640625 51.609375 45.679688 51.621094 L 45.671875 51.71875 L 3.710938 51.71875 L 3.710938 8.261719 L 146.289062 8.261719 Z M 134.609375 51.640625 L 146.191406 51.640625 L 146.191406 51.320312 L 137.980469 51.320312 L 137.980469 50.398438 C 137.941406 50.398438 137.910156 50.421875 137.878906 50.441406 C 137.871094 50.449219 137.851562 50.460938 137.839844 50.46875 C 137.191406 50.859375 136.558594 51.148438 135.910156 51.351562 C 135.46875 51.480469 135.03125 51.570312 134.609375 51.640625 Z M 3.808594 51.640625 L 44.671875 51.640625 C 43.53125 51.53125 42.441406 51.269531 41.410156 50.878906 C 40.601562 50.570312 39.820312 50.160156 39.011719 49.609375 C 38.171875 49.039062 37.390625 48.320312 36.621094 47.398438 C 35.421875 45.96875 34.679688 44.261719 34.421875 42.328125 C 34.191406 40.621094 34.308594 38.960938 34.78125 37.378906 C 35.121094 36.238281 35.648438 35.199219 36.339844 34.28125 C 37.058594 33.339844 37.808594 32.578125 38.648438 31.960938 C 40.140625 30.851562 41.828125 30.140625 43.679688 29.851562 C 44.691406 29.691406 45.75 29.640625 46.839844 29.71875 C 48.269531 29.820312 49.609375 30.140625 50.828125 30.679688 C 51.679688 31.050781 52.46875 31.539062 53.261719 32.171875 C 54.21875 32.941406 55.070312 33.878906 55.78125 34.960938 C 56.519531 36.089844 57 37.371094 57.25 38.859375 C 57.371094 39.621094 57.410156 40.449219 57.371094 41.398438 C 57.339844 42.058594 57.238281 42.710938 57.078125 43.339844 C 57.070312 43.378906 57.058594 43.421875 57.050781 43.460938 C 57.039062 43.488281 57.03125 43.519531 57.019531 43.550781 L 57.011719 43.589844 L 43.300781 43.589844 C 43.300781 43.601562 43.308594 43.609375 43.308594 43.621094 C 43.328125 43.671875 43.351562 43.71875 43.371094 43.761719 C 43.878906 44.609375 44.601562 45.121094 45.53125 45.289062 C 46.378906 45.441406 47.121094 45.371094 47.789062 45.070312 C 48.210938 44.878906 48.570312 44.640625 48.851562 44.339844 C 48.96875 44.21875 49.078125 44.179688 49.238281 44.210938 C 49.941406 44.320312 50.660156 44.429688 51.351562 44.53125 C 51.679688 44.578125 52.011719 44.628906 52.339844 44.679688 C 53.109375 44.800781 53.890625 44.910156 54.660156 45.03125 L 55.75 45.191406 C 56.109375 45.238281 56.480469 45.300781 56.871094 45.351562 L 56.929688 45.359375 L 56.890625 45.480469 C 56.871094 45.53125 56.859375 45.570312 56.839844 45.601562 C 56.570312 46.160156 56.289062 46.628906 56 47.019531 C 55.238281 48.039062 54.449219 48.851562 53.570312 49.46875 C 52.191406 50.460938 50.621094 51.128906 48.910156 51.460938 C 48.5 51.539062 48.109375 51.601562 47.730469 51.640625 L 70.21875 51.640625 C 69.078125 51.480469 67.980469 51.089844 66.960938 50.46875 C 66.929688 50.449219 66.890625 50.429688 66.851562 50.410156 L 66.851562 51.28125 L 66.808594 51.289062 C 66.621094 51.339844 58.960938 51.359375 58.609375 51.308594 L 58.578125 51.308594 L 58.570312 51.28125 C 58.519531 51.089844 58.5 21.210938 58.550781 20.820312 L 58.550781 20.789062 L 58.578125 20.78125 C 58.738281 20.730469 66.410156 20.710938 66.78125 20.761719 L 66.820312 20.769531 L 66.820312 20.808594 C 66.828125 21.058594 66.828125 21.308594 66.828125 21.558594 C 66.828125 21.679688 66.828125 21.808594 66.828125 21.929688 C 66.828125 22.191406 66.828125 22.441406 66.828125 22.699219 L 66.828125 31.011719 C 66.828125 31.011719 66.839844 31.011719 66.839844 31.011719 C 66.890625 30.988281 66.921875 30.96875 66.960938 30.949219 C 68.179688 30.210938 69.53125 29.789062 70.949219 29.710938 C 72.46875 29.621094 73.921875 29.878906 75.238281 30.480469 C 75.710938 30.699219 76.171875 30.96875 76.601562 31.289062 C 77.980469 32.320312 79.089844 33.640625 79.890625 35.230469 C 80.488281 36.421875 80.851562 37.738281 81 39.269531 C 81.179688 41.121094 81.039062 42.800781 80.578125 44.421875 C 80.449219 44.898438 80.300781 45.300781 80.140625 45.660156 C 79.511719 47.089844 78.710938 48.261719 77.699219 49.230469 C 77.019531 49.878906 76.351562 50.378906 75.648438 50.738281 C 74.761719 51.210938 73.820312 51.511719 72.851562 51.640625 L 88.660156 51.640625 C 87.390625 51.441406 86.210938 50.910156 85.148438 50.058594 C 84.011719 49.140625 83.21875 48.089844 82.738281 46.839844 C 82.371094 45.878906 82.179688 44.890625 82.179688 43.890625 C 82.179688 40.53125 82.179688 37.171875 82.179688 33.820312 L 82.179688 30.140625 L 82.21875 30.128906 C 82.429688 30.078125 90.199219 30.070312 90.460938 30.121094 L 90.5 30.128906 L 90.5 33.289062 C 90.5 36.128906 90.5 38.96875 90.5 41.808594 C 90.5 42.320312 90.601562 42.761719 90.808594 43.160156 C 91.019531 43.558594 91.289062 43.851562 91.640625 44.050781 C 92.351562 44.449219 93.289062 44.308594 93.859375 43.699219 C 94 43.558594 94.121094 43.378906 94.238281 43.171875 C 94.460938 42.769531 94.570312 42.308594 94.558594 41.761719 C 94.550781 40.71875 94.550781 39.660156 94.558594 38.640625 C 94.558594 38.21875 94.558594 37.800781 94.558594 37.378906 L 94.558594 30.171875 L 94.601562 30.121094 C 94.609375 30.109375 94.621094 30.101562 94.640625 30.089844 L 94.648438 30.089844 C 94.679688 30.078125 94.699219 30.078125 94.730469 30.078125 C 97.378906 30.078125 100.019531 30.078125 102.671875 30.078125 C 102.691406 30.078125 102.71875 30.089844 102.738281 30.089844 C 102.75 30.089844 102.761719 30.089844 102.761719 30.101562 L 102.789062 30.101562 L 102.800781 30.128906 C 102.839844 30.25 102.851562 39.570312 102.851562 40.628906 C 102.851562 45.621094 102.851562 51.078125 102.820312 51.25 L 102.820312 51.28125 L 102.789062 51.289062 C 102.609375 51.339844 94.878906 51.351562 94.601562 51.300781 L 94.558594 51.289062 L 94.558594 50.011719 C 94.5 50.019531 94.460938 50.058594 94.410156 50.101562 C 94.398438 50.109375 94.390625 50.121094 94.378906 50.128906 C 93.730469 50.679688 93.03125 51.089844 92.28125 51.339844 C 91.890625 51.46875 91.5 51.570312 91.109375 51.628906 L 131.921875 51.628906 C 130.691406 51.460938 129.519531 51.03125 128.449219 50.351562 C 127.691406 49.859375 127 49.25 126.351562 48.488281 C 125.019531 46.941406 124.179688 45.050781 123.859375 42.871094 C 123.589844 41.050781 123.648438 39.25 124.050781 37.53125 C 124.371094 36.128906 124.921875 34.871094 125.691406 33.789062 C 126.429688 32.75 127.21875 31.929688 128.109375 31.300781 C 129.339844 30.421875 130.699219 29.898438 132.171875 29.738281 C 133.730469 29.570312 135.191406 29.761719 136.511719 30.289062 C 136.808594 30.410156 137.101562 30.570312 137.390625 30.71875 C 137.519531 30.789062 137.640625 30.851562 137.769531 30.921875 C 137.808594 30.941406 137.859375 30.96875 137.898438 30.988281 C 137.910156 31 137.921875 31 137.929688 31.011719 C 137.929688 31 137.929688 31 137.929688 30.988281 C 137.929688 30.988281 137.929688 30.980469 137.929688 30.96875 C 137.929688 30.949219 137.929688 30.941406 137.929688 30.929688 L 137.929688 20.898438 C 137.929688 20.890625 137.929688 20.878906 137.929688 20.871094 C 137.929688 20.871094 137.929688 20.859375 137.929688 20.851562 L 137.929688 20.839844 C 137.929688 20.828125 137.929688 20.828125 137.941406 20.820312 C 137.941406 20.820312 137.941406 20.808594 137.949219 20.800781 L 137.96875 20.75 L 146.140625 20.75 L 146.148438 20.761719 L 146.148438 8.359375 L 109.191406 8.359375 C 109.640625 8.429688 110.078125 8.578125 110.5 8.808594 C 111.390625 9.300781 112.421875 9.859375 113.441406 10.429688 C 114.089844 10.800781 114.78125 11.199219 115.558594 11.660156 C 116.609375 12.289062 117.238281 13.191406 117.429688 14.339844 C 117.5 14.769531 117.558594 15.328125 117.449219 15.878906 C 117.441406 15.929688 117.441406 15.980469 117.441406 16.03125 L 117.441406 16.039062 C 117.441406 16.339844 117.449219 16.640625 117.449219 16.929688 C 117.460938 17.640625 117.460938 18.378906 117.5 19.101562 C 117.519531 19.390625 117.511719 19.679688 117.511719 19.960938 C 117.511719 20.21875 117.511719 20.5 117.519531 20.761719 C 117.550781 21.410156 117.390625 22.03125 117.019531 22.71875 C 116.738281 23.238281 116.300781 23.671875 115.691406 24.039062 C 114.738281 24.609375 113.871094 25.128906 113.050781 25.601562 C 112.121094 26.140625 111.339844 26.589844 110.539062 27.03125 C 110.101562 27.269531 109.609375 27.421875 109.039062 27.480469 C 108.230469 27.570312 107.441406 27.410156 106.699219 27 C 106.410156 26.839844 106.128906 26.691406 105.839844 26.53125 C 105.378906 26.28125 104.898438 26.019531 104.441406 25.761719 C 104.011719 25.519531 103.578125 25.269531 103.160156 25.019531 C 102.710938 24.761719 102.238281 24.488281 101.78125 24.21875 C 101.070312 23.820312 100.558594 23.300781 100.210938 22.628906 C 99.921875 22.070312 99.761719 21.480469 99.761719 20.878906 C 99.75 20.378906 99.75 19.871094 99.75 19.371094 C 99.75 19.089844 99.75 18.808594 99.75 18.519531 C 99.75 18.378906 99.78125 18.238281 99.839844 18.109375 L 99.808594 18.160156 L 99.769531 18.109375 C 99.761719 18.101562 99.761719 18.101562 99.761719 18.101562 C 99.75 18.089844 99.738281 18.078125 99.738281 18.050781 C 99.738281 17.800781 99.730469 17.539062 99.730469 17.289062 C 99.71875 16.660156 99.699219 16.019531 99.699219 15.378906 C 99.699219 14.941406 99.761719 14.488281 99.878906 14.011719 C 100.140625 13 100.730469 12.21875 101.628906 11.710938 C 102.011719 11.488281 102.390625 11.269531 102.761719 11.050781 C 103.109375 10.851562 103.460938 10.640625 103.820312 10.429688 L 104.238281 10.191406 C 105.039062 9.730469 105.859375 9.261719 106.679688 8.820312 C 107.121094 8.578125 107.578125 8.429688 108.050781 8.359375 L 3.808594 8.359375 L 3.808594 30.109375 L 12.089844 30.109375 L 12.101562 30.148438 C 12.109375 30.199219 12.121094 30.25 12.128906 30.289062 C 12.140625 30.351562 12.160156 30.398438 12.171875 30.460938 L 12.429688 31.589844 C 12.910156 33.671875 13.398438 35.75 13.890625 37.828125 C 13.898438 37.859375 13.910156 37.890625 13.921875 37.929688 C 13.929688 37.898438 13.941406 37.871094 13.949219 37.851562 C 14.039062 37.488281 14.121094 37.140625 14.210938 36.78125 C 14.328125 36.261719 14.460938 35.738281 14.589844 35.21875 C 14.890625 33.980469 15.191406 32.738281 15.5 31.5 L 15.789062 30.300781 C 15.800781 30.269531 15.808594 30.238281 15.820312 30.199219 L 15.851562 30.121094 L 15.890625 30.121094 C 18.441406 30.121094 20.96875 30.121094 23.519531 30.121094 L 23.558594 30.121094 L 23.570312 30.160156 C 24.179688 32.648438 24.789062 35.128906 25.398438 37.609375 L 25.46875 37.898438 C 25.601562 37.371094 25.730469 36.839844 25.839844 36.320312 C 25.910156 36.011719 25.980469 35.699219 26.050781 35.390625 C 26.148438 34.96875 26.25 34.550781 26.339844 34.121094 C 26.441406 33.679688 26.539062 33.230469 26.648438 32.789062 C 26.800781 32.179688 26.949219 31.550781 27.101562 30.949219 C 27.160156 30.691406 27.230469 30.441406 27.289062 30.179688 L 27.300781 30.148438 L 27.328125 30.140625 C 27.5 30.101562 35.238281 30.089844 35.539062 30.128906 L 35.601562 30.140625 L 35.589844 30.191406 C 35.578125 30.21875 35.578125 30.25 35.570312 30.269531 C 35.558594 30.320312 35.550781 30.359375 35.53125 30.410156 L 35.238281 31.398438 C 34.890625 32.589844 34.539062 33.78125 34.179688 34.96875 C 33.378906 37.671875 32.570312 40.359375 31.769531 43.058594 L 30.761719 46.429688 C 30.300781 47.960938 29.851562 49.488281 29.390625 51.019531 L 29.378906 51.058594 C 29.308594 51.300781 29.289062 51.320312 29.070312 51.320312 L 21.949219 51.320312 C 21.660156 51.320312 21.640625 51.300781 21.558594 51.019531 C 21.28125 49.941406 21.011719 48.859375 20.730469 47.789062 C 20.421875 46.589844 20.121094 45.378906 19.808594 44.179688 C 19.789062 44.121094 19.769531 44.050781 19.738281 43.980469 C 19.730469 44 19.71875 44.019531 19.71875 44.039062 L 19.511719 44.828125 C 19.320312 45.53125 19.140625 46.21875 18.949219 46.921875 C 18.71875 47.789062 18.488281 48.660156 18.269531 49.539062 C 18.140625 50.039062 18.011719 50.550781 17.878906 51.050781 C 17.878906 51.070312 17.871094 51.078125 17.871094 51.101562 C 17.859375 51.128906 17.851562 51.148438 17.851562 51.179688 C 17.839844 51.25 17.789062 51.339844 17.640625 51.339844 C 17.609375 51.339844 17.570312 51.339844 17.539062 51.339844 L 10.449219 51.339844 C 10.429688 51.339844 10.410156 51.339844 10.390625 51.339844 C 10.191406 51.328125 10.171875 51.320312 10.109375 51.128906 L 9.921875 50.5 C 9.738281 49.910156 9.550781 49.308594 9.371094 48.710938 C 9.058594 47.671875 8.75 46.628906 8.449219 45.589844 C 8.140625 44.550781 7.839844 43.511719 7.53125 42.46875 C 6.878906 40.269531 6.21875 38.078125 5.558594 35.878906 L 5.101562 34.359375 C 4.820312 33.429688 4.539062 32.488281 4.261719 31.558594 L 3.929688 30.449219 C 3.910156 30.390625 3.898438 30.339844 3.878906 30.28125 L 3.859375 30.199219 L 3.859375 51.640625 Z M 19.699219 43.761719 L 19.75 43.828125 C 19.828125 43.941406 19.859375 44.039062 19.878906 44.140625 C 20.191406 45.339844 20.488281 46.550781 20.800781 47.75 C 21.078125 48.828125 21.351562 49.910156 21.628906 50.980469 C 21.691406 51.210938 21.691406 51.210938 21.921875 51.210938 L 29.039062 51.210938 C 29.199219 51.210938 29.199219 51.210938 29.261719 51.019531 L 29.269531 50.980469 C 29.730469 49.449219 30.179688 47.921875 30.640625 46.390625 L 31.648438 43.019531 C 32.460938 40.320312 33.261719 37.628906 34.058594 34.929688 C 34.410156 33.738281 34.769531 32.550781 35.121094 31.359375 L 35.410156 30.371094 C 35.421875 30.320312 35.429688 30.28125 35.449219 30.230469 C 35.449219 30.21875 35.449219 30.210938 35.460938 30.199219 C 34.71875 30.160156 27.910156 30.171875 27.378906 30.210938 C 27.320312 30.449219 27.261719 30.699219 27.199219 30.941406 C 27.050781 31.539062 26.898438 32.171875 26.75 32.78125 C 26.648438 33.21875 26.539062 33.671875 26.441406 34.109375 C 26.339844 34.53125 26.25 34.960938 26.148438 35.378906 C 26.078125 35.691406 26.011719 36 25.941406 36.300781 C 25.808594 36.851562 25.679688 37.421875 25.539062 37.980469 L 25.53125 38.019531 L 25.398438 38.011719 L 25.300781 37.589844 C 24.691406 35.121094 24.089844 32.660156 23.480469 30.179688 C 20.960938 30.179688 18.449219 30.179688 15.921875 30.179688 L 15.910156 30.199219 C 15.898438 30.230469 15.890625 30.261719 15.878906 30.28125 L 15.589844 31.480469 C 15.289062 32.71875 14.980469 33.960938 14.679688 35.199219 C 14.550781 35.71875 14.429688 36.238281 14.300781 36.761719 C 14.210938 37.121094 14.128906 37.46875 14.039062 37.828125 C 14.03125 37.871094 14.019531 37.910156 14 37.960938 C 13.988281 37.988281 13.980469 38.019531 13.960938 38.058594 L 13.910156 38.199219 L 13.871094 38.050781 C 13.859375 38.011719 13.851562 37.96875 13.839844 37.941406 C 13.820312 37.890625 13.808594 37.851562 13.800781 37.800781 C 13.308594 35.71875 12.828125 33.640625 12.339844 31.558594 L 12.078125 30.429688 C 12.070312 30.378906 12.050781 30.320312 12.039062 30.269531 C 12.03125 30.238281 12.019531 30.199219 12.011719 30.171875 L 3.929688 30.171875 L 3.929688 30.179688 C 3.949219 30.238281 3.960938 30.300781 3.980469 30.351562 L 4.308594 31.460938 C 4.589844 32.390625 4.871094 33.328125 5.148438 34.261719 L 5.609375 35.78125 C 6.269531 37.980469 6.921875 40.171875 7.578125 42.371094 C 7.890625 43.410156 8.199219 44.449219 8.5 45.488281 C 8.808594 46.53125 9.109375 47.570312 9.421875 48.609375 C 9.601562 49.210938 9.789062 49.808594 9.96875 50.398438 L 10.160156 51.03125 C 10.199219 51.160156 10.199219 51.160156 10.339844 51.171875 C 10.359375 51.171875 10.378906 51.171875 10.398438 51.171875 L 17.488281 51.171875 C 17.53125 51.171875 17.558594 51.171875 17.601562 51.171875 C 17.671875 51.171875 17.699219 51.148438 17.710938 51.089844 C 17.71875 51.058594 17.730469 51.03125 17.730469 51 C 17.730469 50.988281 17.738281 50.96875 17.738281 50.960938 C 17.871094 50.460938 18 49.949219 18.128906 49.449219 C 18.359375 48.578125 18.578125 47.710938 18.808594 46.828125 C 18.988281 46.128906 19.179688 45.441406 19.371094 44.738281 L 19.578125 43.949219 C 19.589844 43.910156 19.609375 43.878906 19.621094 43.839844 C 19.628906 43.820312 19.628906 43.808594 19.640625 43.789062 Z M 102.050781 15.589844 L 102.160156 15.691406 L 102.058594 15.800781 C 102.019531 15.839844 101.96875 15.890625 101.929688 15.929688 L 101.671875 16.191406 C 101.378906 16.480469 101.078125 16.78125 100.78125 17.078125 C 100.480469 17.371094 100.230469 17.691406 100.019531 18.039062 C 99.921875 18.210938 99.878906 18.359375 99.878906 18.539062 C 99.878906 18.820312 99.878906 19.101562 99.878906 19.390625 C 99.878906 19.878906 99.878906 20.398438 99.890625 20.898438 C 99.898438 21.480469 100.050781 22.058594 100.328125 22.601562 C 100.671875 23.261719 101.171875 23.769531 101.871094 24.148438 C 102.328125 24.410156 102.800781 24.679688 103.25 24.949219 C 103.671875 25.191406 104.101562 25.441406 104.53125 25.691406 C 104.988281 25.949219 105.46875 26.210938 105.929688 26.460938 C 106.21875 26.621094 106.5 26.769531 106.789062 26.929688 C 107.511719 27.328125 108.28125 27.488281 109.070312 27.398438 C 109.628906 27.339844 110.109375 27.199219 110.53125 26.960938 C 111.328125 26.519531 112.109375 26.070312 113.039062 25.53125 C 113.859375 25.050781 114.71875 24.539062 115.679688 23.96875 C 116.28125 23.609375 116.699219 23.191406 116.96875 22.691406 C 117.328125 22.019531 117.488281 21.421875 117.460938 20.789062 C 117.449219 20.519531 117.449219 20.25 117.449219 19.980469 C 117.449219 19.699219 117.460938 19.410156 117.441406 19.128906 C 117.398438 18.410156 117.390625 17.671875 117.390625 16.960938 C 117.390625 16.660156 117.390625 16.359375 117.378906 16.070312 L 117.378906 16.058594 C 117.378906 16 117.378906 15.941406 117.390625 15.878906 C 117.5 15.339844 117.441406 14.789062 117.371094 14.378906 C 117.191406 13.261719 116.578125 12.378906 115.550781 11.769531 C 114.78125 11.308594 114.089844 10.910156 113.441406 10.539062 C 112.421875 9.96875 111.390625 9.398438 110.5 8.921875 C 109.878906 8.578125 109.210938 8.421875 108.519531 8.449219 C 107.921875 8.46875 107.328125 8.640625 106.761719 8.941406 C 105.941406 9.378906 105.121094 9.851562 104.320312 10.308594 L 103.898438 10.550781 C 103.550781 10.75 103.191406 10.960938 102.839844 11.171875 C 102.46875 11.390625 102.089844 11.609375 101.710938 11.828125 C 100.828125 12.328125 100.261719 13.078125 100.011719 14.070312 C 99.890625 14.550781 99.828125 14.988281 99.828125 15.421875 C 99.828125 16.058594 99.839844 16.699219 99.859375 17.328125 C 99.859375 17.550781 99.871094 17.769531 99.871094 17.988281 L 99.929688 17.910156 C 99.96875 17.851562 100 17.800781 100.039062 17.738281 C 100.121094 17.609375 100.210938 17.46875 100.320312 17.359375 C 100.691406 16.980469 101.070312 16.601562 101.441406 16.230469 L 101.75 15.921875 C 101.820312 15.851562 101.890625 15.789062 101.960938 15.730469 C 101.988281 15.699219 102.019531 15.679688 102.050781 15.648438 Z M 114.289062 51.308594 L 114.289062 51.011719 C 114.289062 50.328125 114.289062 49.648438 114.289062 48.96875 C 114.289062 47.96875 114.289062 46.960938 114.289062 45.960938 C 114.289062 44.859375 114.28125 43.75 114.28125 42.648438 L 114.238281 33.121094 C 114.230469 31.808594 114.230469 30.460938 114.21875 29.128906 C 114.21875 28.929688 114.28125 28.820312 114.449219 28.71875 C 115.398438 28.179688 116.359375 27.640625 117.28125 27.101562 C 117.699219 26.859375 118.121094 26.621094 118.539062 26.378906 C 119.230469 25.980469 119.921875 25.589844 120.609375 25.199219 L 120.910156 25.03125 C 121.261719 24.828125 121.609375 24.628906 121.96875 24.429688 L 122.269531 24.261719 C 122.300781 24.238281 122.328125 24.230469 122.371094 24.210938 L 122.5 24.148438 L 122.5 24.230469 C 122.5 24.261719 122.5 24.289062 122.511719 24.320312 C 122.511719 24.371094 122.519531 24.421875 122.519531 24.460938 C 122.519531 25.640625 122.53125 26.820312 122.53125 28 C 122.53125 28.949219 122.53125 29.910156 122.53125 30.859375 C 122.53125 32.289062 122.53125 33.71875 122.539062 35.160156 C 122.550781 36.980469 122.550781 38.808594 122.558594 40.628906 C 122.558594 41.960938 122.570312 43.300781 122.570312 44.628906 C 122.570312 45.871094 122.578125 47.109375 122.578125 48.351562 L 122.578125 50.210938 C 122.578125 50.429688 122.578125 50.660156 122.578125 50.890625 L 122.578125 51.300781 L 122.53125 51.300781 C 119.789062 51.300781 117.078125 51.300781 114.339844 51.300781 L 114.289062 51.300781 Z M 122.398438 24.308594 C 122.359375 24.328125 122.339844 24.339844 122.308594 24.359375 L 122.011719 24.53125 C 121.660156 24.730469 121.308594 24.929688 120.960938 25.128906 L 120.660156 25.300781 C 119.96875 25.691406 119.28125 26.089844 118.589844 26.480469 C 118.171875 26.71875 117.75 26.960938 117.328125 27.199219 C 116.398438 27.730469 115.441406 28.28125 114.5 28.820312 C 114.359375 28.898438 114.320312 28.980469 114.320312 29.140625 C 114.328125 30.46875 114.339844 31.820312 114.339844 33.128906 L 114.378906 42.660156 C 114.378906 43.761719 114.390625 44.871094 114.390625 45.96875 C 114.390625 46.96875 114.390625 47.980469 114.390625 48.980469 C 114.390625 49.660156 114.390625 50.339844 114.390625 51.019531 L 114.390625 51.21875 C 117.101562 51.21875 119.769531 51.21875 122.480469 51.21875 L 122.480469 50.898438 C 122.480469 50.671875 122.480469 50.441406 122.480469 50.21875 L 122.480469 48.359375 C 122.480469 47.121094 122.480469 45.878906 122.46875 44.640625 C 122.46875 43.308594 122.460938 41.96875 122.460938 40.640625 C 122.449219 38.820312 122.449219 36.988281 122.441406 35.171875 C 122.441406 33.738281 122.429688 32.308594 122.429688 30.871094 C 122.429688 29.921875 122.429688 28.960938 122.429688 28.011719 C 122.429688 26.828125 122.429688 25.660156 122.421875 24.480469 C 122.421875 24.429688 122.421875 24.378906 122.410156 24.339844 C 122.410156 24.320312 122.398438 24.320312 122.398438 24.308594 Z M 112.71875 51.308594 L 104.460938 51.308594 L 104.460938 30.101562 L 112.71875 30.101562 Z M 104.570312 51.210938 L 112.628906 51.210938 L 112.628906 30.199219 L 104.570312 30.199219 Z M 104.570312 51.210938 "/>
<path style="fill-rule:nonzero;fill:rgb(100%,100%,100%);fill-opacity:1;stroke-width:1;stroke-linecap:butt;stroke-linejoin:miter;stroke:rgb(100%,100%,100%);stroke-opacity:1;stroke-miterlimit:10;" d="M 709.492188 516.914062 C 707.617188 516.601562 705.703125 516.289062 703.789062 516.09375 C 691.601562 514.609375 680.3125 510.585938 669.882812 504.21875 C 669.492188 503.90625 668.984375 503.710938 668.59375 503.398438 C 668.59375 503.398438 668.515625 503.398438 668.085938 503.515625 C 668.085938 506.40625 668.085938 509.414062 668.085938 512.304688 C 666.289062 512.8125 589.296875 512.890625 586.289062 512.5 C 585.898438 510.898438 585.703125 211.40625 586.09375 208.085938 C 587.617188 207.617188 664.101562 207.382812 667.890625 207.890625 C 668.007812 211.601562 667.890625 215.3125 668.007812 219.101562 C 668.007812 223.007812 668.007812 226.796875 668.007812 230.703125 C 668.007812 234.492188 668.007812 238.28125 668.007812 241.992188 C 668.007812 245.703125 668.007812 249.609375 668.007812 253.28125 C 668.007812 257.1875 668.007812 261.015625 668.007812 264.882812 C 668.007812 268.710938 668.007812 272.5 668.007812 276.210938 C 668.007812 279.882812 668.007812 283.789062 668.007812 287.5 C 668.007812 291.40625 668.007812 295.195312 668.007812 299.101562 C 668.007812 302.890625 668.007812 306.601562 668.007812 310.703125 C 668.90625 310.195312 669.492188 310 670 309.609375 C 682.1875 302.1875 695.390625 298.085938 709.6875 297.1875 C 724.492188 296.289062 738.789062 298.710938 752.382812 304.882812 C 757.1875 307.109375 761.71875 309.804688 765.898438 312.890625 C 779.882812 323.398438 790.703125 336.484375 798.59375 352.109375 C 805 364.804688 808.28125 378.28125 809.609375 392.304688 C 811.289062 409.6875 810.195312 426.796875 805.390625 443.59375 C 804.21875 447.8125 802.8125 451.992188 801.09375 456.015625 C 795.195312 469.414062 787.382812 481.40625 776.796875 491.601562 C 770.703125 497.5 763.984375 502.695312 756.484375 506.601562 C 746.09375 511.992188 735.117188 515.3125 723.398438 516.09375 C 722.617188 516.210938 721.796875 516.40625 721.015625 516.484375 C 717.1875 516.914062 713.398438 516.914062 709.492188 516.914062 Z M 668.710938 406.40625 C 668.789062 407.617188 668.789062 408.59375 668.90625 409.6875 C 669.882812 418.710938 673.398438 426.289062 680.703125 431.992188 C 691.09375 440 705.195312 439.414062 714.6875 430.3125 C 724.804688 420.703125 727.5 404.609375 721.210938 392.1875 C 713.28125 376.601562 693.515625 370.3125 678.28125 383.90625 C 671.71875 389.882812 668.789062 397.695312 668.710938 406.40625 Z M 668.710938 406.40625 " transform="matrix(0.1,0,0,0.1,0,0)"/>
<path style="fill-rule:nonzero;fill:rgb(100%,100%,100%);fill-opacity:1;stroke-width:1;stroke-linecap:butt;stroke-linejoin:miter;stroke:rgb(100%,100%,100%);stroke-opacity:1;stroke-miterlimit:10;" d="M 1326.71875 516.914062 C 1324.804688 516.601562 1322.890625 516.289062 1321.015625 516.09375 C 1308.085938 514.492188 1296.09375 510.195312 1285.195312 503.085938 C 1277.304688 498.007812 1270.390625 491.796875 1264.296875 484.609375 C 1250.390625 468.515625 1242.617188 449.609375 1239.492188 428.710938 C 1236.914062 410.78125 1237.304688 393.085938 1241.40625 375.507812 C 1244.492188 362.109375 1249.6875 349.492188 1257.695312 338.28125 C 1264.414062 328.789062 1272.1875 320.3125 1281.796875 313.515625 C 1293.90625 304.804688 1307.304688 299.609375 1322.1875 298.007812 C 1337.109375 296.40625 1351.484375 297.890625 1365.390625 303.515625 C 1369.6875 305.3125 1373.710938 307.617188 1377.890625 309.6875 C 1378.59375 310 1379.21875 310.390625 1379.6875 310.78125 C 1379.882812 310.703125 1380 310.703125 1380 310.703125 C 1380.117188 310.703125 1380.117188 310.585938 1380.117188 310.507812 C 1380.117188 310.390625 1380.195312 310.195312 1380.195312 310.117188 C 1380.195312 310 1380.195312 310 1380.195312 309.882812 C 1380.195312 309.804688 1380.195312 309.609375 1380.195312 309.492188 C 1380.195312 276.09375 1380.195312 242.617188 1380.195312 209.21875 C 1380.195312 209.101562 1380.195312 209.101562 1380.195312 208.984375 C 1380.195312 208.90625 1380.195312 208.90625 1380.195312 208.789062 C 1380.195312 208.710938 1380.195312 208.710938 1380.3125 208.59375 C 1380.3125 208.515625 1380.390625 208.515625 1380.507812 208.203125 C 1407.5 208.203125 1434.609375 208.203125 1461.71875 208.203125 C 1461.796875 208.203125 1461.796875 208.28125 1461.914062 208.28125 C 1461.992188 208.28125 1461.992188 208.398438 1461.992188 208.515625 C 1462.109375 208.984375 1462.1875 209.492188 1462.1875 210 C 1462.1875 310.703125 1462.1875 411.40625 1462.1875 511.992188 C 1462.1875 512.1875 1462.109375 512.382812 1461.992188 512.8125 C 1434.882812 512.8125 1407.8125 512.8125 1380.507812 512.8125 C 1380.507812 509.804688 1380.507812 506.796875 1380.507812 503.789062 C 1379.414062 503.398438 1378.90625 504.101562 1378.28125 504.492188 C 1372.304688 508.203125 1365.898438 511.210938 1359.101562 513.203125 C 1353.28125 515 1347.304688 516.210938 1341.210938 516.71875 C 1340.585938 516.71875 1339.882812 516.992188 1339.296875 517.109375 C 1335 516.914062 1330.78125 516.914062 1326.71875 516.914062 Z M 1379.296875 408.59375 C 1379.414062 400.390625 1377.8125 394.6875 1374.414062 389.492188 C 1363.203125 372.304688 1340.195312 371.992188 1328.398438 389.609375 C 1319.414062 403.085938 1323.710938 422.109375 1334.101562 430.898438 C 1344.609375 439.6875 1359.101562 439.882812 1369.101562 430.585938 C 1376.09375 424.101562 1379.101562 415.898438 1379.296875 408.59375 Z M 1379.296875 408.59375 " transform="matrix(0.1,0,0,0.1,0,0)"/>
<path style="fill-rule:nonzero;fill:rgb(100%,100%,100%);fill-opacity:1;stroke-width:1;stroke-linecap:butt;stroke-linejoin:miter;stroke:rgb(100%,100%,100%);stroke-opacity:1;stroke-miterlimit:10;" d="M 456.796875 516.914062 C 455.585938 516.71875 454.492188 516.484375 453.28125 516.40625 C 439.882812 515.703125 426.914062 513.203125 414.296875 508.398438 C 405.78125 505.195312 397.890625 500.78125 390.390625 495.703125 C 381.40625 489.609375 373.59375 482.109375 366.601562 473.710938 C 354.296875 458.984375 347.1875 442.109375 344.6875 423.203125 C 342.382812 406.484375 343.515625 390.117188 348.28125 373.90625 C 351.71875 362.695312 356.796875 352.382812 363.789062 343.085938 C 370.390625 334.414062 377.890625 326.484375 386.796875 320 C 401.796875 308.90625 418.515625 301.914062 436.914062 298.984375 C 447.304688 297.304688 457.890625 296.992188 468.398438 297.695312 C 482.1875 298.59375 495.507812 301.601562 508.203125 307.1875 C 516.992188 311.09375 524.882812 316.09375 532.382812 321.992188 C 542.304688 329.882812 550.585938 339.21875 557.5 349.804688 C 565.3125 361.71875 569.804688 374.6875 572.109375 388.59375 C 573.515625 396.992188 573.710938 405.390625 573.28125 413.90625 C 573.007812 420.390625 571.992188 426.914062 570.390625 433.203125 C 570.195312 433.789062 570 434.492188 569.804688 435.3125 C 524.101562 435.3125 478.398438 435.3125 432.304688 435.3125 C 432.8125 436.289062 433.007812 437.109375 433.398438 437.695312 C 438.398438 446.09375 445.703125 451.484375 455.390625 453.203125 C 463.203125 454.609375 470.898438 454.296875 478.28125 451.015625 C 482.304688 449.21875 486.015625 446.796875 489.101562 443.59375 C 490.117188 442.617188 491.09375 442.1875 492.617188 442.382812 C 502.890625 443.984375 513.28125 445.507812 523.59375 447.109375 C 534.882812 448.789062 546.289062 450.507812 557.695312 452.1875 C 561.40625 452.695312 565 453.28125 568.90625 453.789062 C 568.59375 454.492188 568.515625 455.117188 568.203125 455.585938 C 565.78125 460.585938 563.085938 465.3125 559.882812 469.6875 C 553.007812 478.984375 545.195312 487.304688 535.703125 494.101562 C 521.71875 504.101562 506.09375 510.585938 489.21875 513.90625 C 482.8125 515.195312 476.289062 516.015625 469.804688 516.289062 C 468.90625 516.289062 468.085938 516.601562 467.1875 516.71875 C 463.59375 516.914062 460.195312 516.914062 456.796875 516.914062 Z M 432.1875 378.59375 C 433.398438 378.710938 433.984375 378.710938 434.6875 378.710938 C 453.203125 378.710938 471.71875 378.59375 490.195312 378.59375 C 490.3125 378.59375 490.3125 378.59375 490.390625 378.515625 C 490.390625 378.515625 490.390625 378.398438 490.507812 378.203125 C 490.507812 378.085938 490.507812 377.8125 490.390625 377.617188 C 486.914062 370.78125 481.796875 365.507812 474.6875 362.5 C 464.101562 358.085938 447.304688 358.710938 437.8125 370.195312 C 437.617188 370.390625 437.382812 370.585938 437.1875 370.78125 C 435.195312 373.085938 433.59375 375.585938 432.1875 378.59375 Z M 432.1875 378.59375 " transform="matrix(0.1,0,0,0.1,0,0)"/>
<path style="fill-rule:nonzero;fill:rgb(100%,100%,100%);fill-opacity:1;stroke-width:1;stroke-linecap:butt;stroke-linejoin:miter;stroke:rgb(100%,100%,100%);stroke-opacity:1;stroke-miterlimit:10;" d="M 893.28125 516.914062 C 891.601562 516.601562 890 516.289062 888.28125 516.09375 C 874.6875 514.296875 862.8125 508.789062 852.1875 500.195312 C 841.484375 491.484375 833.203125 481.09375 828.203125 468.203125 C 824.609375 458.789062 822.695312 448.984375 822.695312 438.90625 C 822.695312 394.101562 822.695312 349.296875 822.695312 304.609375 C 822.695312 303.59375 822.695312 302.695312 822.695312 301.796875 C 824.609375 301.289062 902.5 301.210938 904.882812 301.71875 C 904.882812 302.617188 904.882812 303.515625 904.882812 304.492188 C 904.882812 342.382812 904.882812 380.3125 904.882812 418.085938 C 904.882812 422.890625 905.78125 427.5 908.007812 431.796875 C 910 435.585938 912.8125 438.789062 916.484375 440.898438 C 923.789062 445.117188 933.398438 443.59375 939.296875 437.304688 C 940.78125 435.703125 942.109375 433.789062 943.085938 431.914062 C 945.585938 427.5 946.40625 422.695312 946.40625 417.617188 C 946.289062 403.007812 946.40625 388.398438 946.40625 373.789062 C 946.40625 350.703125 946.40625 327.695312 946.40625 304.609375 C 946.40625 303.59375 946.40625 302.695312 946.40625 301.914062 C 946.601562 301.71875 946.601562 301.601562 946.71875 301.601562 C 946.71875 301.601562 946.796875 301.484375 946.914062 301.484375 C 947.1875 301.40625 947.5 301.40625 947.8125 301.40625 C 974.296875 301.40625 1000.703125 301.40625 1027.1875 301.40625 C 1027.5 301.40625 1027.8125 301.484375 1028.007812 301.484375 C 1028.515625 303.085938 1028.710938 509.21875 1028.203125 512.5 C 1026.601562 512.890625 949.21875 513.007812 946.484375 512.617188 C 946.484375 508.398438 946.484375 504.101562 946.484375 499.6875 C 945.195312 499.6875 944.609375 500.507812 943.90625 501.09375 C 937.695312 506.40625 930.78125 510.507812 923.007812 513.085938 C 917.695312 514.882812 912.304688 516.09375 906.71875 516.484375 C 906.09375 516.484375 905.390625 516.796875 904.804688 516.914062 C 901.015625 516.914062 897.109375 516.914062 893.28125 516.914062 Z M 893.28125 516.914062 " transform="matrix(0.1,0,0,0.1,0,0)"/>
<path style="fill-rule:nonzero;fill:rgb(100%,100%,100%);fill-opacity:1;stroke-width:1;stroke-linecap:butt;stroke-linejoin:miter;stroke:rgb(100%,100%,100%);stroke-opacity:1;stroke-miterlimit:10;" d="M 158.789062 301.601562 C 184.296875 301.601562 209.609375 301.601562 235.117188 301.601562 C 241.484375 327.695312 247.890625 353.789062 254.296875 379.882812 C 254.492188 379.882812 254.609375 379.882812 254.804688 379.882812 C 256.992188 371.289062 258.90625 362.5 260.898438 353.90625 C 262.890625 345.3125 264.804688 336.601562 266.914062 327.890625 C 268.984375 319.21875 271.09375 310.507812 273.28125 301.914062 C 275 301.484375 351.992188 301.289062 355.195312 301.796875 C 355 302.617188 354.804688 303.28125 354.609375 303.984375 C 350.117188 319.21875 345.585938 334.414062 341.09375 349.609375 C 333.085938 376.601562 325 403.515625 316.992188 430.507812 C 309.101562 456.992188 301.09375 483.515625 293.203125 510.117188 C 292.304688 513.007812 292.5 512.695312 289.804688 512.695312 C 266.289062 512.695312 242.8125 512.695312 219.296875 512.695312 C 216.601562 512.695312 216.601562 512.695312 215.898438 510 C 210.117188 487.1875 204.296875 464.414062 198.398438 441.601562 C 198.203125 440.585938 197.8125 439.6875 197.1875 438.710938 C 196.992188 439.21875 196.71875 439.6875 196.601562 440.195312 C 193.984375 449.804688 191.40625 459.296875 188.90625 468.90625 C 185.3125 482.695312 181.71875 496.40625 178.085938 510.195312 C 178.007812 510.585938 177.8125 511.015625 177.695312 511.484375 C 177.5 512.382812 176.914062 512.695312 176.09375 512.695312 C 175.585938 512.695312 175.117188 512.695312 174.492188 512.695312 C 151.09375 512.695312 127.8125 512.695312 104.414062 512.695312 C 104.101562 512.695312 103.789062 512.695312 103.515625 512.695312 C 101.71875 512.695312 101.71875 512.695312 101.210938 511.015625 C 98.710938 502.890625 96.210938 494.882812 93.789062 486.796875 C 87.617188 466.015625 81.484375 445.195312 75.3125 424.414062 C 67.1875 397.382812 59.101562 370.390625 51.09375 343.28125 C 47.1875 330.3125 43.203125 317.1875 39.296875 304.21875 C 39.101562 303.398438 38.90625 302.695312 38.59375 301.71875 C 66.015625 301.71875 93.203125 301.71875 120.507812 301.71875 C 120.78125 302.8125 121.015625 303.789062 121.289062 304.804688 C 126.992188 329.414062 132.8125 353.984375 138.515625 378.59375 C 138.59375 379.21875 138.90625 379.804688 139.21875 381.015625 C 139.609375 379.882812 139.882812 379.296875 140 378.710938 C 142.109375 369.882812 144.21875 361.09375 146.289062 352.304688 C 150.3125 335.898438 154.296875 319.492188 158.28125 303.085938 C 158.398438 302.617188 158.59375 302.1875 158.789062 301.601562 Z M 158.789062 301.601562 " transform="matrix(0.1,0,0,0.1,0,0)"/>
<path style="fill-rule:nonzero;fill:rgb(100%,100%,100%);fill-opacity:1;stroke-width:1;stroke-linecap:butt;stroke-linejoin:miter;stroke:rgb(100%,100%,100%);stroke-opacity:1;stroke-miterlimit:10;" d="M 1020.507812 156.601562 C 1019.492188 157.5 1018.515625 158.28125 1017.5 159.296875 C 1012.695312 164.101562 1007.890625 168.789062 1003.203125 173.59375 C 1001.71875 175.195312 1000.585938 177.1875 999.414062 178.984375 C 998.984375 179.609375 998.59375 180.195312 998.203125 180.78125 C 998.007812 180.585938 998.007812 180.585938 998.007812 180.507812 C 997.8125 171.601562 997.617188 162.695312 997.617188 153.789062 C 997.617188 149.21875 998.28125 144.609375 999.414062 140.195312 C 1001.992188 130.195312 1007.617188 122.617188 1016.601562 117.5 C 1023.90625 113.28125 1031.210938 108.984375 1038.515625 104.804688 C 1048.007812 99.414062 1057.5 93.90625 1067.1875 88.710938 C 1072.695312 85.703125 1078.710938 83.90625 1085 83.710938 C 1092.109375 83.515625 1098.789062 85.117188 1105.117188 88.515625 C 1114.882812 93.90625 1124.6875 99.296875 1134.492188 104.6875 C 1141.601562 108.710938 1148.59375 112.8125 1155.585938 116.992188 C 1165.703125 123.007812 1172.1875 131.796875 1173.984375 143.398438 C 1174.804688 148.398438 1175.195312 153.515625 1174.21875 158.59375 C 1174.101562 159.21875 1174.101562 159.804688 1174.101562 160.390625 C 1174.296875 170.585938 1174.101562 180.898438 1174.6875 191.015625 C 1175 196.601562 1174.609375 202.109375 1174.882812 207.617188 C 1175.195312 214.609375 1173.203125 220.898438 1170 226.914062 C 1166.914062 232.5 1162.304688 236.601562 1156.914062 239.882812 C 1148.085938 245.195312 1139.296875 250.390625 1130.507812 255.507812 C 1122.1875 260.3125 1113.789062 265.195312 1105.390625 269.804688 C 1100.78125 272.304688 1095.78125 273.710938 1090.585938 274.21875 C 1082.382812 275.117188 1074.6875 273.398438 1067.5 269.414062 C 1060 265.3125 1052.382812 261.210938 1044.882812 256.992188 C 1036.015625 251.992188 1027.1875 246.71875 1018.28125 241.71875 C 1011.601562 237.890625 1006.289062 232.8125 1002.8125 226.015625 C 1000 220.585938 998.398438 214.804688 998.28125 208.710938 C 998.203125 200.78125 998.203125 193.007812 998.203125 185.117188 C 998.203125 183.203125 998.710938 181.484375 999.6875 179.882812 C 1001.796875 176.289062 1004.414062 173.085938 1007.382812 170.195312 C 1011.289062 166.40625 1015.117188 162.617188 1018.90625 158.789062 C 1019.609375 158.085938 1020.195312 157.5 1020.898438 156.796875 C 1020.78125 156.796875 1020.585938 156.71875 1020.507812 156.601562 Z M 1087.109375 146.601562 C 1084.492188 146.484375 1082.5 146.601562 1080.703125 147.8125 C 1079.609375 148.515625 1078.710938 149.296875 1077.8125 150.195312 C 1070.507812 157.304688 1063.007812 164.101562 1056.289062 171.796875 C 1054.6875 173.710938 1053.984375 175.703125 1053.789062 178.007812 C 1053.398438 182.617188 1055.3125 186.210938 1058.515625 189.296875 C 1062.304688 192.890625 1066.09375 196.601562 1069.882812 200.3125 C 1073.28125 203.515625 1076.71875 206.71875 1080.195312 209.804688 C 1081.210938 210.703125 1082.382812 211.40625 1083.710938 211.601562 C 1088.203125 212.304688 1092.304688 211.796875 1095.78125 208.203125 C 1102.304688 201.484375 1108.984375 195 1115.507812 188.28125 C 1116.601562 187.1875 1117.8125 186.015625 1118.28125 184.6875 C 1120.3125 179.414062 1119.882812 174.414062 1115.3125 170.117188 C 1114.414062 169.21875 1113.515625 168.398438 1112.617188 167.5 C 1106.484375 161.484375 1100.390625 155.585938 1094.414062 149.492188 C 1092.109375 147.304688 1089.6875 146.289062 1087.109375 146.601562 Z M 1138.007812 142.890625 C 1137.1875 140.898438 1136.914062 140.585938 1135.390625 140 C 1136.289062 141.09375 1137.1875 141.992188 1138.007812 142.890625 Z M 1142.109375 149.296875 C 1142.1875 149.296875 1142.304688 149.21875 1142.382812 149.21875 C 1142.1875 148.789062 1142.109375 148.515625 1141.914062 148.085938 C 1141.796875 148.085938 1141.71875 148.203125 1141.601562 148.203125 C 1141.796875 148.59375 1141.914062 148.90625 1142.109375 149.296875 Z M 1142.109375 149.296875 " transform="matrix(0.1,0,0,0.1,0,0)"/>
<path style="fill-rule:nonzero;fill:rgb(100%,100%,100%);fill-opacity:1;stroke-width:1;stroke-linecap:butt;stroke-linejoin:miter;stroke:rgb(100%,100%,100%);stroke-opacity:1;stroke-miterlimit:10;" d="M 1225.3125 512.617188 C 1197.890625 512.617188 1170.78125 512.617188 1143.398438 512.617188 C 1143.398438 511.71875 1143.398438 510.898438 1143.398438 510.117188 C 1143.398438 493.28125 1143.398438 476.40625 1143.28125 459.609375 C 1143.28125 448.59375 1143.203125 437.5 1143.203125 426.484375 C 1143.085938 400 1143.007812 373.59375 1142.8125 347.109375 C 1142.695312 328.515625 1142.695312 309.882812 1142.5 291.289062 C 1142.5 289.492188 1143.007812 288.515625 1144.609375 287.617188 C 1158.28125 279.882812 1171.914062 271.992188 1185.507812 264.21875 C 1193.398438 259.6875 1201.289062 255.195312 1209.296875 250.703125 C 1213.789062 248.085938 1218.28125 245.585938 1222.890625 243.007812 C 1223.28125 242.8125 1223.789062 242.617188 1224.492188 242.1875 C 1224.609375 243.085938 1224.609375 243.789062 1224.609375 244.492188 C 1224.609375 256.289062 1224.6875 268.085938 1224.6875 279.882812 C 1224.6875 303.789062 1224.804688 327.617188 1224.804688 351.484375 C 1224.882812 383.085938 1225 414.609375 1225.117188 446.210938 C 1225.195312 464.804688 1225.195312 483.398438 1225.195312 501.992188 C 1225.3125 505.585938 1225.3125 508.984375 1225.3125 512.617188 Z M 1225.3125 512.617188 " transform="matrix(0.1,0,0,0.1,0,0)"/>
<path style="fill-rule:nonzero;fill:rgb(100%,100%,100%);fill-opacity:1;stroke-width:1;stroke-linecap:butt;stroke-linejoin:miter;stroke:rgb(100%,100%,100%);stroke-opacity:1;stroke-miterlimit:10;" d="M 1126.71875 512.617188 C 1099.492188 512.617188 1072.382812 512.617188 1045.117188 512.617188 C 1045.117188 442.1875 1045.117188 371.914062 1045.117188 301.40625 C 1072.304688 301.40625 1099.414062 301.40625 1126.71875 301.40625 C 1126.71875 371.914062 1126.71875 442.1875 1126.71875 512.617188 Z M 1126.71875 512.617188 " transform="matrix(0.1,0,0,0.1,0,0)"/>
<path style="fill-rule:nonzero;fill:rgb(100%,100%,100%);fill-opacity:1;stroke-width:1;stroke-linecap:butt;stroke-linejoin:miter;stroke:rgb(100%,100%,100%);stroke-opacity:1;stroke-miterlimit:10;" d="M 474.6875 362.5 C 481.796875 365.507812 486.914062 370.703125 490.390625 377.617188 C 490.507812 377.8125 490.507812 378.007812 490.507812 378.203125 C 490.507812 378.28125 490.507812 378.398438 490.390625 378.515625 C 490.390625 378.515625 490.3125 378.59375 490.195312 378.59375 C 471.71875 378.59375 453.203125 378.710938 434.6875 378.710938 C 434.101562 378.710938 433.398438 378.59375 432.1875 378.59375 C 433.59375 375.585938 435.195312 373.085938 437.109375 370.898438 C 437.304688 370.703125 437.5 370.507812 437.695312 370.3125 " transform="matrix(0.1,0,0,0.1,0,0)"/>
<path style="fill-rule:nonzero;fill:rgb(100%,100%,100%);fill-opacity:1;stroke-width:1;stroke-linecap:butt;stroke-linejoin:miter;stroke:rgb(100%,100%,100%);stroke-opacity:1;stroke-miterlimit:10;" d="M 1138.007812 142.890625 C 1137.1875 141.992188 1136.40625 141.09375 1135.390625 140 C 1136.796875 140.585938 1137.109375 140.898438 1138.007812 142.890625 Z M 1138.007812 142.890625 " transform="matrix(0.1,0,0,0.1,0,0)"/>
<path style="fill-rule:nonzero;fill:rgb(100%,100%,100%);fill-opacity:1;stroke-width:1;stroke-linecap:butt;stroke-linejoin:miter;stroke:rgb(100%,100%,100%);stroke-opacity:1;stroke-miterlimit:10;" d="M 1142.109375 149.296875 C 1141.914062 148.90625 1141.796875 148.59375 1141.601562 148.203125 C 1141.71875 148.203125 1141.796875 148.085938 1141.914062 148.085938 C 1142.109375 148.515625 1142.1875 148.789062 1142.382812 149.21875 C 1142.304688 149.21875 1142.1875 149.296875 1142.109375 149.296875 Z M 1142.109375 149.296875 " transform="matrix(0.1,0,0,0.1,0,0)"/>
</g>
</svg>
