<?xml version="1.0" encoding="UTF-8"?>
<svg xmlns="http://www.w3.org/2000/svg" xmlns:xlink="http://www.w3.org/1999/xlink" width="200pt" height="80pt" viewBox="0 0 200 80" version="1.1">
<g id="surface1">
<path style=" stroke:none;fill-rule:nonzero;fill:rgb(100%,100%,100%);fill-opacity:1;" d="M 60.953125 69.167969 C 42.324219 69.167969 23.695312 69.167969 5.066406 69.167969 C 5.066406 49.890625 5.066406 30.613281 5.066406 11.332031 C 68.390625 11.332031 131.714844 11.332031 195.035156 11.332031 C 195.035156 30.613281 195.035156 49.890625 195.035156 69.167969 C 189.558594 69.167969 184.078125 69.167969 178.601562 69.167969 C 178.6875 69.148438 178.769531 69.117188 178.855469 69.109375 C 179.667969 69.046875 180.460938 68.882812 181.238281 68.652344 C 182.140625 68.378906 182.988281 67.980469 183.792969 67.488281 C 183.871094 67.441406 183.9375 67.351562 184.082031 67.398438 C 184.082031 67.796875 184.082031 68.199219 184.082031 68.601562 C 187.730469 68.601562 191.34375 68.601562 194.953125 68.601562 C 194.96875 68.554688 194.988281 68.53125 194.988281 68.5 C 194.988281 55.078125 194.992188 41.652344 194.992188 28.226562 C 194.992188 28.160156 194.980469 28.09375 194.972656 28.023438 C 194.96875 28.011719 194.964844 28.003906 194.957031 27.996094 C 194.953125 27.992188 194.941406 27.984375 194.933594 27.980469 C 191.320312 27.980469 187.707031 27.980469 184.105469 27.980469 C 184.089844 28.011719 184.085938 28.019531 184.082031 28.027344 C 184.078125 28.035156 184.078125 28.046875 184.074219 28.054688 C 184.074219 28.0625 184.070312 28.074219 184.070312 28.085938 C 184.070312 28.09375 184.070312 28.105469 184.070312 28.113281 C 184.070312 32.570312 184.070312 37.03125 184.070312 41.488281 C 184.070312 41.507812 184.070312 41.527344 184.066406 41.546875 C 184.066406 41.554688 184.066406 41.566406 184.066406 41.574219 C 184.0625 41.597656 184.058594 41.613281 184.054688 41.632812 C 184.054688 41.640625 184.046875 41.652344 184.042969 41.65625 C 184.035156 41.660156 184.023438 41.664062 183.996094 41.675781 C 183.921875 41.632812 183.839844 41.578125 183.753906 41.535156 C 183.199219 41.253906 182.660156 40.933594 182.085938 40.699219 C 180.234375 39.949219 178.308594 39.75 176.328125 39.964844 C 174.34375 40.179688 172.554688 40.882812 170.941406 42.039062 C 169.671875 42.945312 168.628906 44.082031 167.734375 45.34375 C 166.667969 46.84375 165.96875 48.515625 165.5625 50.308594 C 165.027344 52.660156 164.960938 55.027344 165.3125 57.40625 C 165.722656 60.195312 166.765625 62.710938 168.613281 64.863281 C 169.429688 65.8125 170.34375 66.648438 171.40625 67.324219 C 172.871094 68.265625 174.457031 68.84375 176.183594 69.050781 C 176.4375 69.082031 176.6875 69.125 176.941406 69.160156 C 158.191406 69.160156 139.445312 69.160156 120.699219 69.160156 C 120.78125 69.140625 120.867188 69.113281 120.953125 69.105469 C 121.695312 69.042969 122.417969 68.882812 123.121094 68.648438 C 124.15625 68.296875 125.074219 67.75 125.902344 67.042969 C 125.996094 66.960938 126.074219 66.859375 126.253906 66.863281 C 126.253906 67.445312 126.253906 68.011719 126.253906 68.578125 C 126.617188 68.640625 136.933594 68.625 137.148438 68.566406 C 137.207031 68.136719 137.183594 40.652344 137.121094 40.441406 C 137.085938 40.433594 137.046875 40.421875 137.007812 40.421875 C 133.480469 40.421875 129.949219 40.421875 126.421875 40.421875 C 126.382812 40.421875 126.34375 40.433594 126.304688 40.441406 C 126.296875 40.441406 126.289062 40.453125 126.28125 40.457031 C 126.277344 40.464844 126.269531 40.472656 126.242188 40.5 C 126.242188 40.609375 126.242188 40.734375 126.242188 40.863281 C 126.242188 43.9375 126.242188 47.011719 126.242188 50.085938 C 126.242188 52.035156 126.234375 53.980469 126.246094 55.929688 C 126.25 56.605469 126.132812 57.246094 125.808594 57.839844 C 125.667969 58.097656 125.496094 58.347656 125.292969 58.558594 C 124.5 59.402344 123.226562 59.59375 122.246094 59.039062 C 121.742188 58.75 121.375 58.332031 121.109375 57.820312 C 120.8125 57.246094 120.691406 56.632812 120.691406 55.988281 C 120.695312 50.9375 120.695312 45.886719 120.695312 40.835938 C 120.695312 40.710938 120.695312 40.585938 120.695312 40.464844 C 120.382812 40.398438 109.996094 40.40625 109.738281 40.476562 C 109.738281 40.59375 109.738281 40.722656 109.738281 40.847656 C 109.738281 46.820312 109.742188 52.789062 109.738281 58.757812 C 109.738281 60.109375 109.992188 61.410156 110.476562 62.664062 C 111.140625 64.386719 112.238281 65.78125 113.671875 66.933594 C 115.089844 68.078125 116.679688 68.808594 118.488281 69.054688 C 118.710938 69.085938 118.933594 69.128906 119.15625 69.164062 C 111.5 69.164062 103.847656 69.164062 96.195312 69.164062 C 96.300781 69.144531 96.40625 69.113281 96.511719 69.105469 C 98.070312 68.992188 99.539062 68.558594 100.925781 67.835938 C 101.933594 67.3125 102.820312 66.617188 103.636719 65.835938 C 105.046875 64.488281 106.09375 62.878906 106.878906 61.097656 C 107.109375 60.5625 107.296875 60.007812 107.453125 59.449219 C 108.089844 57.207031 108.234375 54.917969 108.011719 52.605469 C 107.832031 50.730469 107.390625 48.933594 106.539062 47.238281 C 105.484375 45.15625 104.046875 43.402344 102.171875 42.007812 C 101.609375 41.585938 101.007812 41.226562 100.367188 40.933594 C 98.558594 40.113281 96.660156 39.792969 94.679688 39.910156 C 92.777344 40.019531 91.011719 40.570312 89.386719 41.558594 C 89.3125 41.601562 89.234375 41.636719 89.117188 41.699219 C 89.117188 41.15625 89.117188 40.65625 89.117188 40.15625 C 89.117188 39.640625 89.117188 39.125 89.117188 38.613281 C 89.117188 38.109375 89.117188 37.605469 89.117188 37.101562 C 89.117188 36.597656 89.117188 36.09375 89.117188 35.589844 C 89.117188 35.074219 89.117188 34.558594 89.117188 34.046875 C 89.117188 33.542969 89.117188 33.039062 89.117188 32.535156 C 89.117188 32.03125 89.117188 31.523438 89.117188 31.019531 C 89.117188 30.507812 89.117188 29.992188 89.117188 29.480469 C 89.113281 28.980469 89.128906 28.480469 89.109375 27.988281 C 88.597656 27.917969 78.402344 27.945312 78.203125 28.007812 C 78.148438 28.449219 78.167969 68.382812 78.222656 68.59375 C 78.621094 68.648438 88.878906 68.628906 89.125 68.5625 C 89.125 68.175781 89.125 67.777344 89.125 67.390625 C 89.171875 67.378906 89.183594 67.371094 89.191406 67.375 C 89.253906 67.40625 89.3125 67.441406 89.371094 67.476562 C 90.765625 68.324219 92.269531 68.863281 93.894531 69.058594 C 94.148438 69.089844 94.402344 69.128906 94.65625 69.164062 C 83.878906 69.164062 73.097656 69.164062 62.320312 69.164062 C 62.4375 69.144531 62.550781 69.109375 62.667969 69.105469 C 63.539062 69.074219 64.402344 68.957031 65.253906 68.789062 C 67.503906 68.347656 69.578125 67.480469 71.449219 66.144531 C 72.707031 65.246094 73.753906 64.132812 74.671875 62.894531 C 75.105469 62.308594 75.464844 61.667969 75.785156 61.007812 C 75.816406 60.941406 75.835938 60.867188 75.871094 60.769531 C 75.355469 60.695312 74.871094 60.625 74.382812 60.550781 C 72.871094 60.324219 71.355469 60.09375 69.84375 59.867188 C 68.464844 59.660156 67.085938 59.460938 65.710938 59.246094 C 65.507812 59.214844 65.382812 59.261719 65.246094 59.402344 C 64.835938 59.824219 64.347656 60.140625 63.8125 60.382812 C 62.828125 60.824219 61.796875 60.867188 60.761719 60.679688 C 59.46875 60.453125 58.5 59.734375 57.832031 58.613281 C 57.78125 58.523438 57.746094 58.429688 57.683594 58.289062 C 63.828125 58.289062 69.914062 58.289062 76.011719 58.289062 C 76.042969 58.179688 76.070312 58.097656 76.09375 58.011719 C 76.308594 57.164062 76.4375 56.304688 76.480469 55.4375 C 76.53125 54.308594 76.5 53.183594 76.320312 52.066406 C 76.015625 50.210938 75.410156 48.476562 74.375 46.894531 C 73.449219 45.488281 72.34375 44.246094 71.027344 43.195312 C 70.035156 42.402344 68.96875 41.734375 67.804688 41.21875 C 66.109375 40.472656 64.339844 40.070312 62.5 39.945312 C 61.097656 39.851562 59.695312 39.898438 58.300781 40.121094 C 55.847656 40.515625 53.617188 41.441406 51.621094 42.925781 C 50.445312 43.800781 49.441406 44.847656 48.558594 46.011719 C 47.617188 47.25 46.9375 48.628906 46.492188 50.117188 C 45.847656 52.273438 45.710938 54.464844 46.011719 56.6875 C 46.355469 59.203125 47.296875 61.460938 48.933594 63.414062 C 49.867188 64.527344 50.898438 65.527344 52.101562 66.34375 C 53.105469 67.023438 54.15625 67.601562 55.289062 68.03125 C 56.96875 68.667969 58.703125 69.007812 60.492188 69.101562 C 60.644531 69.113281 60.796875 69.148438 60.953125 69.167969 Z M 21.226562 40.472656 C 21.199219 40.550781 21.175781 40.605469 21.160156 40.660156 C 20.625 42.84375 20.089844 45.03125 19.558594 47.21875 C 19.273438 48.386719 18.996094 49.558594 18.714844 50.730469 C 18.699219 50.8125 18.660156 50.886719 18.609375 51.035156 C 18.5625 50.878906 18.535156 50.796875 18.515625 50.714844 C 17.75 47.4375 16.984375 44.15625 16.222656 40.878906 C 16.191406 40.746094 16.15625 40.617188 16.121094 40.46875 C 12.480469 40.46875 8.855469 40.46875 5.199219 40.46875 C 5.234375 40.597656 5.261719 40.699219 5.289062 40.800781 C 5.816406 42.542969 6.339844 44.28125 6.863281 46.019531 C 7.941406 49.621094 9.019531 53.222656 10.09375 56.828125 C 10.917969 59.597656 11.734375 62.375 12.558594 65.148438 C 12.878906 66.226562 13.214844 67.296875 13.546875 68.375 C 13.617188 68.597656 13.617188 68.597656 13.855469 68.605469 C 13.894531 68.605469 13.933594 68.605469 13.972656 68.605469 C 17.089844 68.605469 20.203125 68.605469 23.316406 68.605469 C 23.386719 68.605469 23.453125 68.601562 23.523438 68.605469 C 23.636719 68.605469 23.714844 68.566406 23.738281 68.445312 C 23.75 68.386719 23.769531 68.332031 23.785156 68.273438 C 24.265625 66.441406 24.738281 64.605469 25.21875 62.773438 C 25.554688 61.492188 25.902344 60.21875 26.246094 58.941406 C 26.265625 58.871094 26.300781 58.808594 26.328125 58.738281 C 26.421875 58.867188 26.460938 58.996094 26.496094 59.125 C 27.273438 62.167969 28.046875 65.207031 28.824219 68.25 C 28.914062 68.605469 28.914062 68.605469 29.273438 68.605469 C 32.40625 68.605469 35.542969 68.605469 38.675781 68.605469 C 39.046875 68.605469 39.015625 68.640625 39.132812 68.253906 C 40.191406 64.71875 41.25 61.179688 42.308594 57.644531 C 43.382812 54.050781 44.453125 50.457031 45.527344 46.863281 C 46.128906 44.839844 46.730469 42.8125 47.328125 40.785156 C 47.359375 40.6875 47.378906 40.589844 47.40625 40.488281 C 46.984375 40.425781 36.714844 40.441406 36.492188 40.5 C 36.210938 41.65625 35.921875 42.816406 35.644531 43.976562 C 35.371094 45.128906 35.121094 46.285156 34.847656 47.4375 C 34.574219 48.59375 34.328125 49.757812 34.035156 50.910156 C 34.011719 50.90625 33.988281 50.90625 33.964844 50.90625 C 33.113281 47.429688 32.261719 43.957031 31.402344 40.46875 C 28.003906 40.472656 24.628906 40.472656 21.226562 40.472656 Z M 136.121094 21.132812 C 136.136719 21.148438 136.15625 21.160156 136.171875 21.175781 C 136.085938 21.265625 136 21.355469 135.910156 21.445312 C 135.402344 21.953125 134.894531 22.464844 134.375 22.96875 C 133.976562 23.355469 133.632812 23.785156 133.347656 24.265625 C 133.214844 24.484375 133.144531 24.707031 133.148438 24.957031 C 133.152344 26.003906 133.148438 27.054688 133.164062 28.101562 C 133.175781 28.914062 133.386719 29.683594 133.761719 30.402344 C 134.238281 31.3125 134.941406 31.996094 135.835938 32.5 C 137.023438 33.167969 138.191406 33.871094 139.378906 34.542969 C 140.378906 35.105469 141.386719 35.648438 142.390625 36.203125 C 143.351562 36.734375 144.378906 36.957031 145.476562 36.835938 C 146.167969 36.761719 146.839844 36.582031 147.449219 36.246094 C 148.574219 35.625 149.6875 34.984375 150.796875 34.335938 C 151.976562 33.652344 153.148438 32.957031 154.316406 32.253906 C 155.035156 31.820312 155.65625 31.273438 156.0625 30.519531 C 156.496094 29.71875 156.761719 28.882812 156.714844 27.949219 C 156.679688 27.210938 156.730469 26.476562 156.6875 25.730469 C 156.609375 24.375 156.628906 23.007812 156.609375 21.644531 C 156.605469 21.566406 156.605469 21.484375 156.621094 21.410156 C 156.761719 20.730469 156.703125 20.046875 156.597656 19.378906 C 156.34375 17.820312 155.484375 16.65625 154.136719 15.851562 C 153.203125 15.296875 152.265625 14.75 151.320312 14.214844 C 150.019531 13.484375 148.710938 12.765625 147.402344 12.050781 C 146.570312 11.597656 145.675781 11.378906 144.726562 11.410156 C 143.882812 11.441406 143.085938 11.683594 142.347656 12.078125 C 141.0625 12.769531 139.796875 13.503906 138.527344 14.230469 C 137.550781 14.789062 136.585938 15.371094 135.605469 15.925781 C 134.40625 16.609375 133.648438 17.621094 133.308594 18.953125 C 133.15625 19.546875 133.0625 20.15625 133.0625 20.769531 C 133.0625 21.953125 133.097656 23.136719 133.117188 24.324219 C 133.117188 24.332031 133.128906 24.335938 133.148438 24.359375 C 133.207031 24.277344 133.257812 24.203125 133.3125 24.125 C 133.480469 23.878906 133.617188 23.609375 133.820312 23.398438 C 134.441406 22.75 135.085938 22.121094 135.726562 21.488281 C 135.851562 21.363281 135.988281 21.25 136.121094 21.132812 Z M 163.421875 68.605469 C 163.421875 68.117188 163.421875 67.664062 163.421875 67.210938 C 163.414062 64.726562 163.410156 62.246094 163.40625 59.765625 C 163.390625 55.554688 163.375 51.347656 163.363281 47.136719 C 163.351562 43.953125 163.351562 40.769531 163.34375 37.589844 C 163.34375 36.015625 163.339844 34.445312 163.335938 32.875 C 163.335938 32.78125 163.324219 32.6875 163.316406 32.566406 C 163.222656 32.613281 163.160156 32.640625 163.101562 32.675781 C 162.5 33.015625 161.894531 33.351562 161.292969 33.695312 C 160.238281 34.296875 159.179688 34.894531 158.125 35.5 C 156.308594 36.539062 154.492188 37.585938 152.667969 38.613281 C 152.460938 38.734375 152.390625 38.867188 152.390625 39.101562 C 152.410156 41.582031 152.417969 44.0625 152.429688 46.542969 C 152.445312 50.070312 152.460938 53.601562 152.480469 57.128906 C 152.484375 58.601562 152.492188 60.074219 152.496094 61.546875 C 152.5 63.789062 152.5 66.035156 152.503906 68.277344 C 152.503906 68.382812 152.503906 68.488281 152.503906 68.605469 C 156.160156 68.605469 159.773438 68.605469 163.421875 68.605469 Z M 150.28125 68.605469 C 150.28125 59.214844 150.28125 49.839844 150.28125 40.449219 C 146.648438 40.449219 143.027344 40.449219 139.40625 40.449219 C 139.40625 49.84375 139.40625 59.21875 139.40625 68.605469 C 143.039062 68.605469 146.652344 68.605469 150.28125 68.605469 Z M 150.28125 68.605469 "/>
<path style=" stroke:none;fill-rule:nonzero;fill:rgb(0%,0%,0%);fill-opacity:1;" d="M 94.652344 69.167969 C 94.398438 69.132812 94.148438 69.089844 93.894531 69.0625 C 92.269531 68.867188 90.765625 68.328125 89.367188 67.480469 C 89.308594 67.445312 89.246094 67.410156 89.1875 67.378906 C 89.179688 67.375 89.167969 67.382812 89.125 67.394531 C 89.125 67.78125 89.125 68.179688 89.125 68.566406 C 88.878906 68.632812 78.617188 68.652344 78.222656 68.597656 C 78.167969 68.386719 78.144531 28.453125 78.199219 28.011719 C 78.402344 27.949219 88.597656 27.925781 89.105469 27.992188 C 89.125 28.484375 89.113281 28.984375 89.113281 29.484375 C 89.117188 29.996094 89.113281 30.511719 89.113281 31.023438 C 89.113281 31.53125 89.113281 32.035156 89.113281 32.539062 C 89.113281 33.042969 89.113281 33.546875 89.113281 34.050781 C 89.113281 34.5625 89.113281 35.078125 89.113281 35.59375 C 89.113281 36.097656 89.113281 36.601562 89.113281 37.105469 C 89.113281 37.609375 89.113281 38.113281 89.113281 38.617188 C 89.113281 39.128906 89.113281 39.644531 89.113281 40.160156 C 89.113281 40.660156 89.113281 41.160156 89.113281 41.703125 C 89.230469 41.640625 89.308594 41.605469 89.382812 41.5625 C 91.011719 40.574219 92.773438 40.027344 94.675781 39.914062 C 96.65625 39.796875 98.554688 40.117188 100.363281 40.9375 C 101.003906 41.226562 101.605469 41.589844 102.171875 42.011719 C 104.042969 43.40625 105.480469 45.160156 106.535156 47.242188 C 107.390625 48.9375 107.828125 50.734375 108.007812 52.609375 C 108.230469 54.921875 108.085938 57.210938 107.453125 59.453125 C 107.292969 60.011719 107.109375 60.566406 106.875 61.101562 C 106.09375 62.882812 105.046875 64.492188 103.632812 65.839844 C 102.816406 66.621094 101.929688 67.316406 100.921875 67.839844 C 99.539062 68.558594 98.070312 68.996094 96.507812 69.109375 C 96.402344 69.117188 96.296875 69.148438 96.191406 69.167969 C 95.679688 69.167969 95.167969 69.167969 94.652344 69.167969 Z M 89.214844 54.441406 C 89.226562 54.601562 89.226562 54.738281 89.242188 54.878906 C 89.371094 56.078125 89.839844 57.09375 90.816406 57.847656 C 92.199219 58.917969 94.078125 58.832031 95.34375 57.628906 C 96.6875 56.351562 97.054688 54.199219 96.214844 52.546875 C 95.160156 50.46875 92.523438 49.632812 90.5 51.445312 C 89.613281 52.238281 89.226562 53.28125 89.214844 54.441406 Z M 89.214844 54.441406 "/>
<path style=" stroke:none;fill-rule:nonzero;fill:rgb(0%,0%,0%);fill-opacity:1;" d="M 176.941406 69.167969 C 176.6875 69.132812 176.4375 69.089844 176.183594 69.058594 C 174.457031 68.851562 172.871094 68.269531 171.40625 67.332031 C 170.34375 66.652344 169.429688 65.820312 168.613281 64.871094 C 166.765625 62.71875 165.722656 60.203125 165.3125 57.414062 C 164.960938 55.035156 165.027344 52.664062 165.5625 50.316406 C 165.96875 48.523438 166.667969 46.851562 167.734375 45.351562 C 168.628906 44.085938 169.671875 42.949219 170.941406 42.046875 C 172.554688 40.890625 174.34375 40.1875 176.328125 39.972656 C 178.308594 39.757812 180.234375 39.957031 182.085938 40.707031 C 182.660156 40.941406 183.199219 41.257812 183.753906 41.539062 C 183.839844 41.585938 183.921875 41.636719 183.996094 41.679688 C 184.023438 41.671875 184.035156 41.667969 184.042969 41.664062 C 184.046875 41.65625 184.054688 41.648438 184.054688 41.640625 C 184.0625 41.621094 184.0625 41.601562 184.066406 41.582031 C 184.066406 41.574219 184.066406 41.5625 184.066406 41.554688 C 184.066406 41.535156 184.070312 41.511719 184.070312 41.496094 C 184.070312 37.035156 184.070312 32.578125 184.070312 28.121094 C 184.070312 28.109375 184.070312 28.101562 184.070312 28.089844 C 184.074219 28.082031 184.074219 28.070312 184.074219 28.0625 C 184.074219 28.050781 184.078125 28.042969 184.082031 28.035156 C 184.085938 28.023438 184.089844 28.015625 184.105469 27.988281 C 187.707031 27.988281 191.320312 27.988281 194.933594 27.988281 C 194.941406 27.992188 194.953125 27.996094 194.957031 28.003906 C 194.964844 28.011719 194.972656 28.019531 194.972656 28.03125 C 194.980469 28.097656 194.992188 28.164062 194.992188 28.234375 C 194.992188 41.660156 194.988281 55.085938 194.988281 68.507812 C 194.988281 68.535156 194.96875 68.5625 194.953125 68.609375 C 191.34375 68.609375 187.730469 68.609375 184.082031 68.609375 C 184.082031 68.207031 184.082031 67.804688 184.082031 67.40625 C 183.9375 67.355469 183.871094 67.449219 183.792969 67.496094 C 182.988281 67.988281 182.140625 68.386719 181.238281 68.65625 C 180.460938 68.890625 179.667969 69.050781 178.855469 69.117188 C 178.769531 69.125 178.6875 69.15625 178.601562 69.175781 C 178.046875 69.167969 177.496094 69.167969 176.941406 69.167969 Z M 183.953125 54.730469 C 183.964844 53.636719 183.753906 52.875 183.300781 52.1875 C 181.8125 49.898438 178.738281 49.851562 177.167969 52.195312 C 175.96875 53.988281 176.539062 56.53125 177.929688 57.707031 C 179.324219 58.882812 181.257812 58.902344 182.601562 57.667969 C 183.53125 56.804688 183.929688 55.707031 183.953125 54.730469 Z M 183.953125 54.730469 "/>
<path style=" stroke:none;fill-rule:nonzero;fill:rgb(0%,0%,0%);fill-opacity:1;" d="M 60.953125 69.167969 C 60.796875 69.148438 60.644531 69.113281 60.488281 69.105469 C 58.699219 69.015625 56.964844 68.671875 55.285156 68.039062 C 54.152344 67.605469 53.101562 67.03125 52.097656 66.347656 C 50.894531 65.53125 49.863281 64.535156 48.929688 63.421875 C 47.289062 61.464844 46.347656 59.210938 46.007812 56.691406 C 45.707031 54.46875 45.84375 52.277344 46.488281 50.125 C 46.933594 48.632812 47.613281 47.253906 48.554688 46.015625 C 49.4375 44.855469 50.441406 43.804688 51.617188 42.933594 C 53.613281 41.449219 55.84375 40.519531 58.296875 40.128906 C 59.691406 39.90625 61.09375 39.855469 62.496094 39.949219 C 64.335938 40.074219 66.105469 40.476562 67.800781 41.222656 C 68.964844 41.738281 70.03125 42.40625 71.023438 43.203125 C 72.339844 44.253906 73.445312 45.492188 74.371094 46.902344 C 75.40625 48.484375 76.011719 50.21875 76.316406 52.070312 C 76.496094 53.1875 76.527344 54.316406 76.476562 55.441406 C 76.433594 56.3125 76.304688 57.171875 76.089844 58.015625 C 76.066406 58.101562 76.039062 58.183594 76.007812 58.292969 C 69.910156 58.292969 63.824219 58.292969 57.679688 58.292969 C 57.742188 58.433594 57.777344 58.53125 57.828125 58.617188 C 58.496094 59.742188 59.464844 60.457031 60.757812 60.6875 C 61.792969 60.871094 62.824219 60.828125 63.808594 60.386719 C 64.34375 60.148438 64.832031 59.828125 65.242188 59.40625 C 65.382812 59.265625 65.503906 59.21875 65.707031 59.25 C 67.085938 59.46875 68.460938 59.664062 69.839844 59.871094 C 71.351562 60.097656 72.867188 60.328125 74.378906 60.554688 C 74.867188 60.628906 75.355469 60.699219 75.867188 60.773438 C 75.832031 60.871094 75.8125 60.945312 75.78125 61.011719 C 75.460938 61.671875 75.101562 62.3125 74.667969 62.898438 C 73.75 64.136719 72.703125 65.253906 71.445312 66.152344 C 69.574219 67.484375 67.503906 68.351562 65.25 68.796875 C 64.398438 68.964844 63.535156 69.078125 62.664062 69.109375 C 62.546875 69.113281 62.433594 69.148438 62.316406 69.167969 C 61.863281 69.167969 61.410156 69.167969 60.953125 69.167969 Z M 57.675781 50.730469 C 57.832031 50.738281 57.921875 50.746094 58.007812 50.746094 C 60.476562 50.742188 62.945312 50.734375 65.414062 50.726562 C 65.421875 50.726562 65.433594 50.722656 65.4375 50.714844 C 65.441406 50.707031 65.445312 50.695312 65.449219 50.675781 C 65.445312 50.65625 65.445312 50.625 65.433594 50.601562 C 64.964844 49.691406 64.289062 48.988281 63.339844 48.59375 C 61.925781 48.007812 59.6875 48.09375 58.417969 49.621094 C 58.394531 49.652344 58.363281 49.675781 58.335938 49.707031 C 58.070312 50 57.867188 50.328125 57.675781 50.730469 Z M 57.675781 50.730469 "/>
<path style=" stroke:none;fill-rule:nonzero;fill:rgb(0%,0%,0%);fill-opacity:1;" d="M 119.15625 69.167969 C 118.933594 69.132812 118.710938 69.089844 118.488281 69.058594 C 116.679688 68.8125 115.089844 68.082031 113.671875 66.9375 C 112.238281 65.78125 111.140625 64.390625 110.476562 62.667969 C 109.992188 61.414062 109.738281 60.113281 109.738281 58.761719 C 109.742188 52.792969 109.738281 46.824219 109.738281 40.851562 C 109.738281 40.726562 109.738281 40.597656 109.738281 40.480469 C 109.992188 40.410156 120.382812 40.402344 120.695312 40.46875 C 120.695312 40.589844 120.695312 40.714844 120.695312 40.839844 C 120.695312 45.890625 120.695312 50.941406 120.691406 55.992188 C 120.691406 56.636719 120.8125 57.25 121.109375 57.824219 C 121.375 58.335938 121.742188 58.753906 122.246094 59.042969 C 123.226562 59.597656 124.5 59.40625 125.292969 58.5625 C 125.496094 58.351562 125.667969 58.097656 125.808594 57.84375 C 126.132812 57.25 126.25 56.609375 126.246094 55.933594 C 126.234375 53.984375 126.242188 52.039062 126.242188 50.089844 C 126.242188 47.015625 126.242188 43.941406 126.242188 40.867188 C 126.242188 40.738281 126.242188 40.613281 126.242188 40.503906 C 126.269531 40.476562 126.277344 40.46875 126.28125 40.460938 C 126.289062 40.457031 126.296875 40.445312 126.304688 40.445312 C 126.34375 40.4375 126.382812 40.425781 126.421875 40.425781 C 129.949219 40.425781 133.480469 40.425781 137.007812 40.425781 C 137.046875 40.425781 137.085938 40.4375 137.121094 40.445312 C 137.183594 40.65625 137.207031 68.140625 137.148438 68.570312 C 136.933594 68.628906 126.617188 68.644531 126.253906 68.582031 C 126.253906 68.019531 126.253906 67.449219 126.253906 66.867188 C 126.074219 66.863281 125.996094 66.964844 125.902344 67.046875 C 125.074219 67.753906 124.15625 68.300781 123.121094 68.652344 C 122.417969 68.886719 121.695312 69.046875 120.953125 69.109375 C 120.867188 69.113281 120.78125 69.144531 120.699219 69.164062 C 120.183594 69.167969 119.667969 69.167969 119.15625 69.167969 Z M 119.15625 69.167969 "/>
<path style=" stroke:none;fill-rule:nonzero;fill:rgb(0%,0%,0%);fill-opacity:1;" d="M 21.226562 40.472656 C 24.628906 40.472656 28.003906 40.472656 31.402344 40.472656 C 32.261719 43.957031 33.113281 47.433594 33.964844 50.910156 C 33.988281 50.910156 34.011719 50.910156 34.035156 50.914062 C 34.332031 49.761719 34.574219 48.597656 34.847656 47.441406 C 35.121094 46.289062 35.375 45.128906 35.644531 43.980469 C 35.921875 42.816406 36.210938 41.660156 36.492188 40.503906 C 36.714844 40.445312 46.984375 40.429688 47.40625 40.492188 C 47.382812 40.59375 47.359375 40.691406 47.328125 40.789062 C 46.730469 42.816406 46.128906 44.84375 45.527344 46.867188 C 44.453125 50.460938 43.382812 54.054688 42.308594 57.648438 C 41.25 61.1875 40.191406 64.722656 39.132812 68.257812 C 39.015625 68.644531 39.046875 68.609375 38.675781 68.609375 C 35.542969 68.609375 32.40625 68.609375 29.273438 68.609375 C 28.914062 68.609375 28.914062 68.609375 28.824219 68.253906 C 28.046875 65.214844 27.273438 62.171875 26.496094 59.128906 C 26.460938 59 26.421875 58.871094 26.328125 58.742188 C 26.300781 58.8125 26.265625 58.875 26.246094 58.945312 C 25.902344 60.222656 25.554688 61.496094 25.21875 62.777344 C 24.738281 64.609375 24.261719 66.445312 23.785156 68.277344 C 23.769531 68.335938 23.75 68.390625 23.738281 68.449219 C 23.714844 68.570312 23.636719 68.609375 23.523438 68.609375 C 23.453125 68.605469 23.386719 68.609375 23.316406 68.609375 C 20.203125 68.609375 17.089844 68.609375 13.972656 68.609375 C 13.933594 68.609375 13.894531 68.609375 13.855469 68.609375 C 13.621094 68.601562 13.617188 68.601562 13.546875 68.378906 C 13.214844 67.300781 12.878906 66.226562 12.558594 65.152344 C 11.734375 62.378906 10.917969 59.601562 10.09375 56.832031 C 9.019531 53.226562 7.941406 49.625 6.863281 46.023438 C 6.339844 44.28125 5.8125 42.546875 5.289062 40.808594 C 5.261719 40.707031 5.234375 40.601562 5.199219 40.476562 C 8.855469 40.476562 12.480469 40.476562 16.121094 40.476562 C 16.15625 40.617188 16.191406 40.75 16.222656 40.882812 C 16.984375 44.160156 17.75 47.441406 18.515625 50.71875 C 18.535156 50.800781 18.5625 50.882812 18.609375 51.039062 C 18.660156 50.890625 18.695312 50.816406 18.714844 50.734375 C 18.996094 49.5625 19.273438 48.390625 19.558594 47.222656 C 20.089844 45.035156 20.625 42.847656 21.160156 40.664062 C 21.175781 40.605469 21.199219 40.550781 21.226562 40.472656 Z M 21.226562 40.472656 "/>
<path style=" stroke:none;fill-rule:nonzero;fill:rgb(0%,0%,0%);fill-opacity:1;" d="M 136.121094 21.132812 C 135.988281 21.25 135.851562 21.363281 135.726562 21.488281 C 135.089844 22.121094 134.445312 22.746094 133.824219 23.398438 C 133.621094 23.609375 133.480469 23.878906 133.3125 24.125 C 133.257812 24.203125 133.207031 24.277344 133.152344 24.359375 C 133.128906 24.335938 133.117188 24.332031 133.117188 24.324219 C 133.097656 23.136719 133.066406 21.953125 133.066406 20.769531 C 133.066406 20.15625 133.15625 19.546875 133.308594 18.953125 C 133.652344 17.621094 134.410156 16.609375 135.609375 15.925781 C 136.585938 15.371094 137.550781 14.789062 138.53125 14.230469 C 139.796875 13.503906 141.0625 12.769531 142.351562 12.078125 C 143.085938 11.683594 143.882812 11.441406 144.726562 11.410156 C 145.679688 11.378906 146.570312 11.597656 147.402344 12.050781 C 148.710938 12.769531 150.019531 13.484375 151.320312 14.214844 C 152.265625 14.75 153.207031 15.296875 154.136719 15.851562 C 155.488281 16.65625 156.347656 17.820312 156.597656 19.378906 C 156.703125 20.046875 156.761719 20.730469 156.621094 21.410156 C 156.605469 21.484375 156.609375 21.566406 156.609375 21.644531 C 156.628906 23.007812 156.613281 24.375 156.691406 25.730469 C 156.734375 26.472656 156.679688 27.210938 156.71875 27.949219 C 156.765625 28.882812 156.496094 29.71875 156.0625 30.519531 C 155.65625 31.273438 155.035156 31.820312 154.316406 32.253906 C 153.148438 32.957031 151.976562 33.652344 150.796875 34.335938 C 149.6875 34.984375 148.574219 35.625 147.449219 36.246094 C 146.839844 36.582031 146.171875 36.761719 145.476562 36.835938 C 144.378906 36.957031 143.355469 36.734375 142.390625 36.203125 C 141.390625 35.648438 140.378906 35.109375 139.382812 34.542969 C 138.195312 33.871094 137.023438 33.167969 135.835938 32.5 C 134.941406 31.996094 134.238281 31.3125 133.765625 30.402344 C 133.390625 29.683594 133.175781 28.914062 133.164062 28.101562 C 133.148438 27.054688 133.15625 26.007812 133.148438 24.957031 C 133.148438 24.707031 133.21875 24.484375 133.347656 24.265625 C 133.632812 23.785156 133.976562 23.355469 134.378906 22.96875 C 134.894531 22.464844 135.402344 21.953125 135.914062 21.445312 C 136 21.355469 136.085938 21.265625 136.171875 21.175781 C 136.15625 21.160156 136.136719 21.148438 136.121094 21.132812 Z M 145 19.796875 C 144.660156 19.78125 144.382812 19.804688 144.140625 19.960938 C 144 20.050781 143.875 20.164062 143.753906 20.28125 C 142.78125 21.222656 141.777344 22.128906 140.890625 23.160156 C 140.679688 23.40625 140.585938 23.679688 140.554688 23.992188 C 140.496094 24.601562 140.757812 25.082031 141.183594 25.492188 C 141.6875 25.976562 142.1875 26.46875 142.699219 26.953125 C 143.148438 27.382812 143.601562 27.8125 144.066406 28.222656 C 144.191406 28.335938 144.363281 28.441406 144.53125 28.46875 C 145.125 28.566406 145.675781 28.503906 146.136719 28.023438 C 146.996094 27.125 147.890625 26.257812 148.765625 25.371094 C 148.910156 25.222656 149.078125 25.070312 149.148438 24.886719 C 149.40625 24.175781 149.367188 23.511719 148.742188 22.933594 C 148.621094 22.816406 148.5 22.703125 148.378906 22.585938 C 147.570312 21.785156 146.757812 20.992188 145.953125 20.1875 C 145.667969 19.898438 145.34375 19.757812 145 19.796875 Z M 151.78125 19.3125 C 151.667969 19.042969 151.628906 19.003906 151.433594 18.925781 C 151.5625 19.066406 151.671875 19.1875 151.78125 19.3125 Z M 152.332031 20.160156 C 152.34375 20.15625 152.355469 20.152344 152.367188 20.144531 C 152.347656 20.097656 152.328125 20.046875 152.308594 20 C 152.292969 20.003906 152.28125 20.007812 152.269531 20.015625 C 152.289062 20.0625 152.3125 20.113281 152.332031 20.160156 Z M 152.332031 20.160156 "/>
<path style=" stroke:none;fill-rule:nonzero;fill:rgb(0%,0%,0%);fill-opacity:1;" d="M 163.421875 68.605469 C 159.773438 68.605469 156.160156 68.605469 152.503906 68.605469 C 152.503906 68.488281 152.503906 68.382812 152.503906 68.277344 C 152.503906 66.03125 152.5 63.789062 152.496094 61.546875 C 152.492188 60.074219 152.484375 58.601562 152.480469 57.128906 C 152.460938 53.601562 152.445312 50.070312 152.429688 46.542969 C 152.417969 44.0625 152.410156 41.582031 152.390625 39.101562 C 152.390625 38.863281 152.457031 38.730469 152.667969 38.613281 C 154.492188 37.582031 156.308594 36.539062 158.125 35.5 C 159.179688 34.894531 160.238281 34.296875 161.292969 33.695312 C 161.894531 33.351562 162.5 33.011719 163.101562 32.671875 C 163.160156 32.640625 163.222656 32.613281 163.316406 32.566406 C 163.324219 32.6875 163.335938 32.78125 163.335938 32.871094 C 163.339844 34.445312 163.34375 36.015625 163.34375 37.585938 C 163.351562 40.769531 163.351562 43.953125 163.363281 47.132812 C 163.375 51.34375 163.390625 55.554688 163.40625 59.765625 C 163.414062 62.246094 163.414062 64.726562 163.421875 67.207031 C 163.421875 67.664062 163.421875 68.117188 163.421875 68.605469 Z M 163.421875 68.605469 "/>
<path style=" stroke:none;fill-rule:nonzero;fill:rgb(0%,0%,0%);fill-opacity:1;" d="M 150.28125 68.605469 C 146.652344 68.605469 143.039062 68.605469 139.40625 68.605469 C 139.40625 59.21875 139.40625 49.84375 139.40625 40.449219 C 143.027344 40.449219 146.648438 40.449219 150.28125 40.449219 C 150.28125 49.839844 150.28125 59.214844 150.28125 68.605469 Z M 150.28125 68.605469 "/>
<path style=" stroke:none;fill-rule:nonzero;fill:rgb(100%,100%,100%);fill-opacity:1;" d="M 89.214844 54.441406 C 89.226562 53.277344 89.613281 52.238281 90.5 51.445312 C 92.523438 49.632812 95.160156 50.46875 96.214844 52.546875 C 97.054688 54.199219 96.6875 56.351562 95.34375 57.628906 C 94.078125 58.832031 92.199219 58.917969 90.820312 57.847656 C 89.839844 57.09375 89.375 56.078125 89.242188 54.878906 C 89.226562 54.738281 89.226562 54.601562 89.214844 54.441406 Z M 89.214844 54.441406 "/>
<path style=" stroke:none;fill-rule:nonzero;fill:rgb(100%,100%,100%);fill-opacity:1;" d="M 183.953125 54.730469 C 183.929688 55.707031 183.53125 56.804688 182.597656 57.667969 C 181.257812 58.902344 179.324219 58.882812 177.929688 57.707031 C 176.539062 56.53125 175.96875 53.988281 177.167969 52.195312 C 178.734375 49.851562 181.8125 49.898438 183.300781 52.1875 C 183.75 52.875 183.964844 53.636719 183.953125 54.730469 Z M 183.953125 54.730469 "/>
<path style=" stroke:none;fill-rule:nonzero;fill:rgb(100%,100%,100%);fill-opacity:1;" d="M 57.675781 50.730469 C 57.867188 50.328125 58.070312 50 58.335938 49.703125 C 58.363281 49.675781 58.394531 49.652344 58.417969 49.621094 C 59.6875 48.09375 61.925781 48.003906 63.339844 48.59375 C 64.292969 48.988281 64.964844 49.691406 65.433594 50.601562 C 65.445312 50.625 65.445312 50.65625 65.449219 50.675781 C 65.445312 50.695312 65.445312 50.707031 65.4375 50.710938 C 65.433594 50.71875 65.421875 50.726562 65.414062 50.726562 C 62.945312 50.734375 60.476562 50.742188 58.007812 50.746094 C 57.921875 50.746094 57.832031 50.738281 57.675781 50.730469 Z M 57.675781 50.730469 "/>
<path style=" stroke:none;fill-rule:nonzero;fill:rgb(100%,100%,100%);fill-opacity:1;" d="M 145 19.796875 C 145.34375 19.757812 145.667969 19.902344 145.953125 20.183594 C 146.757812 20.988281 147.570312 21.785156 148.378906 22.582031 C 148.5 22.699219 148.621094 22.816406 148.742188 22.929688 C 149.363281 23.507812 149.40625 24.175781 149.144531 24.882812 C 149.078125 25.066406 148.910156 25.222656 148.765625 25.367188 C 147.890625 26.253906 146.996094 27.121094 146.132812 28.019531 C 145.671875 28.5 145.125 28.5625 144.527344 28.464844 C 144.363281 28.441406 144.191406 28.335938 144.0625 28.222656 C 143.597656 27.808594 143.148438 27.378906 142.695312 26.949219 C 142.1875 26.464844 141.6875 25.976562 141.179688 25.488281 C 140.753906 25.078125 140.496094 24.601562 140.554688 23.988281 C 140.582031 23.675781 140.679688 23.402344 140.890625 23.15625 C 141.777344 22.128906 142.78125 21.21875 143.753906 20.277344 C 143.875 20.160156 144 20.046875 144.140625 19.957031 C 144.382812 19.804688 144.660156 19.78125 145 19.796875 Z M 145 19.796875 "/>
<path style=" stroke:none;fill-rule:nonzero;fill:rgb(100%,100%,100%);fill-opacity:1;" d="M 151.78125 19.3125 C 151.671875 19.191406 151.5625 19.070312 151.433594 18.925781 C 151.628906 19.003906 151.667969 19.039062 151.78125 19.3125 Z M 151.78125 19.3125 "/>
<path style=" stroke:none;fill-rule:nonzero;fill:rgb(100%,100%,100%);fill-opacity:1;" d="M 152.332031 20.160156 C 152.3125 20.113281 152.289062 20.0625 152.269531 20.015625 C 152.28125 20.007812 152.292969 20.003906 152.308594 20 C 152.328125 20.046875 152.347656 20.097656 152.367188 20.144531 C 152.355469 20.152344 152.34375 20.15625 152.332031 20.160156 Z M 152.332031 20.160156 "/>
</g>
</svg>
